<svg xmlns="http://www.w3.org/2000/svg" width="53" height="73" viewBox="0 0 53 73"><g><g><g/><g/><g/><g/><g/><g/><g/><g><g><path fill="#cbcbea" d="M4 26l4 8H0z"/></g><g><path fill="#cbcbea" d="M19 13l4 8h-8z"/></g><g><path fill="#cbcbea" d="M19 26l4 8h-8z"/></g><g><path fill="#cbcbea" d="M34 13l4 8h-8z"/></g><g><path fill="#cbcbea" d="M27 0l4 8h-8z"/></g><g><path fill="#cbcbea" d="M34 26l4 8h-8z"/></g><g><path fill="#cbcbea" d="M4 39l4 8H0z"/></g><g><path fill="#cbcbea" d="M19 39l4 8h-8z"/></g><g><path fill="#cbcbea" d="M34 39l4 8h-8z"/></g></g><g><g><path fill="#cbcbea" d="M4 52l4 8H0z"/></g></g><g><g><path fill="#cbcbea" d="M19 52l4 8h-8z"/></g></g><g><g><path fill="#cbcbea" d="M34 52l4 8h-8z"/></g></g><g><g><path fill="#cbcbea" d="M4 65l4 8H0z"/></g></g><g><g><path fill="#cbcbea" d="M19 65l4 8h-8z"/></g></g><g><g><path fill="#cbcbea" d="M34 65l4 8h-8z"/></g></g><g><g><path fill="#cbcbea" d="M49 26l4 8h-8z"/></g></g><g><g><path fill="#cbcbea" d="M49 39l4 8h-8z"/></g></g><g><g><path fill="#cbcbea" d="M49 52l4 8h-8z"/></g></g><g><g><path fill="#cbcbea" d="M49 65l4 8h-8z"/></g></g></g></g></svg>