<?xml version="1.0" encoding="UTF-8"?>
<svg width="91px" height="96px" viewBox="0 0 91 96" version="1.1" xmlns="http://www.w3.org/2000/svg" xmlns:xlink="http://www.w3.org/1999/xlink">
    <!-- Generator: Sketch 55.2 (78181) - https://sketchapp.com -->
    <title>Group 39</title>
    <desc>Created with Sketch.</desc>
    <defs>
        <polygon id="path-1" points="0 0.23653125 56 0.23653125 56 56.1875 0 56.1875"></polygon>
    </defs>
    <g id="Page-1" stroke="none" stroke-width="1" fill="none" fill-rule="evenodd">
        <g id="Home-Copy" transform="translate(-106.000000, -5138.000000)">
            <g id="Group-39" transform="translate(106.000000, 5138.000000)">
                <g id="Group-17" fill="#FFFFFF" opacity="0.932407924">
                    <g id="Group-16">
                        <g id="Group-6">
                            <path d="M42.8709427,0 L43.4,0 L43.9290573,0 C67.6060252,-4.34938844e-15 86.8,19.1939748 86.8,42.8709427 L86.8,71.4427513 C86.7999955,84.7282859 76.0299418,95.4983396 62.7444072,95.4983396 C55.1138229,95.4983396 47.9357755,91.8780534 43.4,85.7418855 C43.4,85.7418855 43.4,85.7418855 43.4,85.7418855 C40.5090437,81.8308909 36.4236691,79.5004596 31.1438761,78.7505914 C13.2772506,76.2130728 2.20998809e-15,60.916865 0,42.8709427 C-2.89959229e-15,19.1939748 19.1939748,4.34938844e-15 42.8709427,0 Z" id="Rectangle"></path>
                        </g>
                    </g>
                </g>
                <g id="Group-8" transform="translate(2.000000, 12.000000)">
                    <g id="Group-3" transform="translate(0.000000, 0.217047)">
                        <mask id="mask-2" fill="white">
                            <use xlink:href="#path-1"></use>
                        </mask>
                        <g id="Clip-2"></g>
                        <path d="M42.1232,14.4120938 C42.1232,6.59523437 35.7852645,0.23653125 27.9949419,0.23653125 C20.2041677,0.23653125 13.8662323,6.5956875 13.8662323,14.4120938 C13.8662323,19.3729062 16.2232,24.29475 18.9346839,28.3157812 L-9.03225806e-05,28.3157812 L-9.03225806e-05,56.1875 L56.0003613,56.1875 L56.0003613,28.3157812 L36.8433935,28.3157812 C39.6406839,24.1832813 42.1232,19.1757969 42.1232,14.4120938 L42.1232,14.4120938 Z M17.1359097,14.4120937 C17.1359097,8.40410937 22.0074581,3.51670312 27.9949419,3.51670312 C33.9828774,3.51670312 38.8539742,8.40410937 38.8539742,14.4120937 C38.8539742,21.9878906 30.9182323,30.9475312 27.9637806,34.0201719 C24.9980387,31.0812031 17.1359097,22.5248437 17.1359097,14.4120937 L17.1359097,14.4120937 Z M3.2695871,31.5959531 L21.3584903,31.5959531 C21.5328129,31.813 21.7057806,32.0246094 21.8778452,32.2321406 L10.0171355,44.1330156 L3.2695871,37.3162031 L3.2695871,31.5959531 Z M3.2695871,52.906875 L3.2695871,41.9711563 L14.0938452,52.906875 L3.2695871,52.906875 Z M52.7302323,52.906875 L32.6569419,52.906875 L44.1252,40.6770312 L52.7302323,47.8622344 L52.7302323,52.906875 Z M52.7302323,31.5959531 L52.7302323,43.5937969 L38.3608129,31.5959531 L52.7302323,31.5959531 Z M41.6074581,38.5745312 L28.1679097,52.906875 L18.7021032,52.906875 L12.3212645,46.4607187 L24.0455871,34.6971406 C25.6063613,36.3709844 28.0301677,38.5310312 28.0301677,38.5310312 C28.0301677,38.5310312 31.4728129,35.2572031 33.9607484,32.1895469 L41.6074581,38.5745312 Z" id="Fill-1" fill="#232740" mask="url(#mask-2)"></path>
                    </g>
                    <path d="M28.1893613,34.5268109 C25.2236194,31.5882953 17.3610387,23.0314828 17.3610387,14.9187328 C17.3610387,8.91120156 22.2325871,4.02334219 28.220071,4.02334219 C34.2080065,4.02334219 39.0791032,8.91120156 39.0791032,14.9187328 C39.0791032,22.4940766 31.1438129,31.4546234 28.1893613,34.5268109 M37.0685226,28.8219672 C39.8658129,24.6903734 42.3487806,19.6819828 42.3487806,14.9187328 C42.3487806,7.10232656 36.0103935,0.742717187 28.220071,0.742717187 C25.0890387,0.742717187 22.1937484,1.77176406 19.8489742,3.50813906 C16.3814903,6.13173281 14.1347161,10.2982172 14.1347161,14.9821703 C14.1347161,16.9478266 14.4847161,18.8717953 15.076329,20.7277953 C15.1102,20.8315609 15.144071,20.9357797 15.1792968,21.0390922 C15.2357484,21.2072016 15.2944581,21.3748578 15.3545226,21.5420609 C15.4168452,21.7137953 15.4805226,21.8850766 15.5464581,22.0554516 C15.592071,22.1741703 15.6394903,22.2933422 15.6873613,22.4116078 C15.7564581,22.5833422 15.8273613,22.7546234 15.900071,22.9249984 C15.9741355,23.0971859 16.0491032,23.2689203 16.1267806,23.4397484 C16.1656194,23.5258422 16.2040065,23.6114828 16.2437484,23.6975766 C19.4542645,30.5805453 25.4905226,36.2069984 28.3036194,38.9919047 C28.4707161,38.8310453 29.0858129,38.2379047 29.9136194,37.3987172 C30.5102,36.7851859 31.1672968,36.1032328 31.8609742,35.3601078 C32.644071,34.5127641 33.4556194,33.5965453 34.1854258,32.6961859 L34.2220065,32.7265453" id="Fill-4" stroke="#F5812E" stroke-width="0.9" fill="#F6801C"></path>
                    <path d="M34.6244387,16.4779359 C34.6244387,12.6961547 31.5584387,9.61988906 27.789729,9.61988906 C24.0210194,9.61988906 20.9550194,12.6961547 20.9550194,16.4779359 C20.9550194,20.2592641 24.0210194,23.3355297 27.789729,23.3355297 C31.5584387,23.3355297 34.6244387,20.2592641 34.6244387,16.4779359 M24.2246968,16.4779359 C24.2246968,14.5050297 25.8238581,12.9005141 27.789729,12.9005141 C29.7560516,12.9005141 31.3552129,14.5050297 31.3552129,16.4779359 C31.3552129,18.4503891 29.7556,20.0553578 27.789729,20.0553578 C25.8238581,20.0553578 24.2246968,18.4503891 24.2246968,16.4779359" id="Fill-6" fill="#F5812E"></path>
                </g>
                <g id="Group-21-Copy-4" transform="translate(68.000000, 0.000000)">
                    <g id="Triangle-Copy-2"></g>
                    <g id="Triangle-Copy-6" transform="translate(0.000000, 13.000000)"></g>
                    <polygon id="Triangle" fill="#F888AE" points="4 0 8 8 0 8"></polygon>
                    <polygon id="Triangle" fill="#F888AE" points="4 13 8 21 0 21"></polygon>
                    <polygon id="Triangle" fill="#F888AE" points="4 26 8 34 0 34"></polygon>
                    <g id="Triangle-Copy-10" transform="translate(0.000000, 39.000000)" fill="#F888AE">
                        <polygon id="Triangle" points="4 0 8 8 0 8"></polygon>
                    </g>
                    <g id="Triangle-Copy-13" transform="translate(0.000000, 52.000000)" fill="#F888AE">
                        <polygon id="Triangle" points="4 0 8 8 0 8"></polygon>
                    </g>
                    <g id="Triangle-Copy-3" transform="translate(15.000000, 13.000000)" fill="#F888AE">
                        <polygon id="Triangle" points="4 0 8 8 0 8"></polygon>
                    </g>
                    <g id="Triangle-Copy-16" transform="translate(15.000000, 26.000000)" fill="#F888AE">
                        <polygon id="Triangle" points="4 0 8 8 0 8"></polygon>
                    </g>
                    <g id="Triangle-Copy-17" transform="translate(15.000000, 39.000000)" fill="#F888AE">
                        <polygon id="Triangle" points="4 0 8 8 0 8"></polygon>
                    </g>
                    <g id="Triangle-Copy-18" transform="translate(15.000000, 52.000000)" fill="#F888AE">
                        <polygon id="Triangle" points="4 0 8 8 0 8"></polygon>
                    </g>
                </g>
            </g>
        </g>
    </g>
</svg>