<?xml version="1.0" encoding="UTF-8"?>
<svg width="96px" height="100px" viewBox="0 0 96 100" version="1.1" xmlns="http://www.w3.org/2000/svg" xmlns:xlink="http://www.w3.org/1999/xlink">
    <!-- Generator: Sketch 55.2 (78181) - https://sketchapp.com -->
    <title>Group 30</title>
    <desc>Created with Sketch.</desc>
    <defs>
        <polygon id="path-1" points="0 0.23960303 68.9347286 0.23960303 68.9347286 69.7545303 0 69.7545303"></polygon>
    </defs>
    <g id="Page-1" stroke="none" stroke-width="1" fill="none" fill-rule="evenodd">
        <g id="Home" transform="translate(-364.000000, -1938.000000)">
            <g id="Group-30" transform="translate(364.000000, 1931.000000)">
                <g id="Group-20">
                    <g id="Group-18" transform="translate(0.000000, 14.000000)">
                        <g id="Group-17">
                            <g id="Group-16">
                                <g id="Group-6" transform="translate(5.000000, 0.000000)" fill="#CFD1F6" opacity="0.3">
                                    <path d="M41.4880091,0 L42,0 L42.5119909,0 C65.4251856,-4.20908559e-15 84,18.5748144 84,41.4880091 L84,69.1381464 C83.9999957,81.9951153 73.577363,92.417748 60.7203941,92.417748 C53.3359577,92.417748 46.3894602,88.9142452 42,82.9760182 C42,82.9760182 42,82.9760182 42,82.9760182 C39.2023004,79.1911847 35.248712,76.9359286 30.139235,76.2102498 C12.8489522,73.7545866 2.13869815e-15,58.9518048 0,41.4880091 C-2.80605706e-15,18.5748144 18.5748144,4.20908559e-15 41.4880091,0 Z" id="Rectangle"></path>
                                </g>
                                <g id="Group-15" transform="translate(0.000000, 10.000000)">
                                    <polygon id="Fill-1" fill="#F6801C" points="24.7019871 25.9407 17.2022871 25.9407 17.2022871 30.0140636 20.6543443 30.0140636 20.6543443 37.6399879 12.7574014 37.6399879 12.7574014 12.6145333 24.7799871 12.6145333 24.7799871 17.0545333 17.2022871 17.0545333 17.2022871 21.127897 28.82763 21.127897 28.82763 12.6145333 37.6856443 12.6145333 37.6856443 25.9407 29.1034157 25.9407 29.1034157 33.7774121 33.1516157 33.7774121 33.1516157 30.0140636 37.6856443 30.0140636 37.6856443 34.7545485 41.7338443 34.7545485 41.7338443 8.5417303 8.70920143 8.5417303 8.70920143 41.7133515 33.3377014 41.7133515 33.3377014 37.6399879 24.7019871 37.6399879"></polygon>
                                    <polygon id="Fill-2" fill="#F6801C" points="20.5218 60.9412424 30.6579 60.9412424 30.6579 56.8678788 20.5218 56.8678788"></polygon>
                                    <polygon id="Fill-3" fill="#F6801C" points="20.5218 52.7945152 30.6579 52.7945152 30.6579 48.7211515 20.5218 48.7211515"></polygon>
                                    <g id="Group-14">
                                        <g id="Group-6">
                                            <mask id="mask-2" fill="white">
                                                <use xlink:href="#path-1"></use>
                                            </mask>
                                            <g id="Clip-5"></g>
                                            <path d="M64.0937143,41.2922242 C60.4466571,37.622497 55.5070286,36.0264515 50.7356571,36.5035273 L50.7356571,0.23960303 L0,0.248012121 L0,56.3416939 L13.3302,69.7547545 L52.3864714,69.7547545 C56.6263286,69.7547545 60.8661857,68.0992848 64.0937143,64.8516939 C70.5487714,58.3565121 70.5487714,47.7879667 64.0937143,41.2922242 L64.0937143,41.2922242 Z M6.9108,57.5352242 L12.1434857,57.5357848 L12.1440429,62.8004364 L6.9108,57.5352242 Z M16.1922429,65.6819515 L16.1905714,53.4635424 L4.0482,53.4618606 L4.0482,4.32025455 L46.6874571,4.31296667 L46.6874571,37.4330121 C44.4939857,38.2391636 42.4370143,39.5246333 40.6797857,41.2922242 C34.2247286,47.7879667 34.2247286,58.3565121 40.6797857,64.8516939 C40.9672714,65.1415273 41.2636714,65.4173455 41.5667571,65.6819515 L16.1922429,65.6819515 L16.1922429,65.6819515 Z M61.2311143,61.9718606 C56.3538857,66.8794061 48.4190571,66.8794061 43.5418286,61.9718606 C38.6651571,57.0648758 38.6651571,49.0801636 43.5418286,44.1726182 C45.9804429,41.7194061 49.1834571,40.4922394 52.3864714,40.4922394 C55.5894857,40.4922394 58.7925,41.7194061 61.2311143,44.1726182 C66.1083429,49.0801636 66.1083429,57.0648758 61.2311143,61.9718606 L61.2311143,61.9718606 Z" id="Fill-4" fill="#232740" mask="url(#mask-2)"></path>
                                        </g>
                                        <polygon id="Fill-7" fill="#232740" points="62.3370986 64.005403 74.1373843 73.4392818 77.9125843 68.7761606 66.1122986 59.3422818"></polygon>
                                    </g>
                                </g>
                            </g>
                        </g>
                    </g>
                    <g id="Triangle-Copy-2" transform="translate(70.000000, 0.000000)"></g>
                    <g id="Triangle-Copy-6" transform="translate(70.000000, 13.000000)"></g>
                </g>
                <g id="Group-21-Copy" transform="translate(73.000000, 7.000000)">
                    <g id="Triangle-Copy-2"></g>
                    <g id="Triangle-Copy-6" transform="translate(0.000000, 13.000000)"></g>
                    <polygon id="Triangle" fill="#F888AE" points="4 0 8 8 0 8"></polygon>
                    <polygon id="Triangle" fill="#F888AE" points="4 13 8 21 0 21"></polygon>
                    <polygon id="Triangle" fill="#F888AE" points="4 26 8 34 0 34"></polygon>
                    <g id="Triangle-Copy-10" transform="translate(0.000000, 39.000000)" fill="#F888AE">
                        <polygon id="Triangle" points="4 0 8 8 0 8"></polygon>
                    </g>
                    <g id="Triangle-Copy-13" transform="translate(0.000000, 52.000000)" fill="#F888AE">
                        <polygon id="Triangle" points="4 0 8 8 0 8"></polygon>
                    </g>
                    <g id="Triangle-Copy-3" transform="translate(15.000000, 13.000000)" fill="#F888AE">
                        <polygon id="Triangle" points="4 0 8 8 0 8"></polygon>
                    </g>
                    <g id="Triangle-Copy-16" transform="translate(15.000000, 26.000000)" fill="#F888AE">
                        <polygon id="Triangle" points="4 0 8 8 0 8"></polygon>
                    </g>
                    <g id="Triangle-Copy-17" transform="translate(15.000000, 39.000000)" fill="#F888AE">
                        <polygon id="Triangle" points="4 0 8 8 0 8"></polygon>
                    </g>
                    <g id="Triangle-Copy-18" transform="translate(15.000000, 52.000000)" fill="#F888AE">
                        <polygon id="Triangle" points="4 0 8 8 0 8"></polygon>
                    </g>
                </g>
            </g>
        </g>
    </g>
</svg>