<svg xmlns="http://www.w3.org/2000/svg" width="55" height="48" viewBox="0 0 55 48"><defs><clipPath id="37ela"><path fill="#fff" d="M0 24C0 10.745 10.745 0 24 0s24 10.745 24 24-10.745 24-24 24S0 37.255 0 24z"/></clipPath></defs><g><g><g><path fill="none" stroke="#e1e2f4" stroke-dasharray="5 5" stroke-miterlimit="20" stroke-width="2" d="M0 24C0 10.745 10.745 0 24 0h0c13.255 0 24 10.745 24 24v0c0 13.255-10.745 24-24 24h0C10.745 48 0 37.255 0 24z" clip-path="url(&quot;#37ela&quot;)"/></g><g><path fill="none" stroke="#f5812e" stroke-miterlimit="20" stroke-width="3" d="M14 19.009v0L22.63 29v0s7.817-10.67 14.062-14.851C42.937 9.969 54 8 54 8v0"/></g></g></g></svg>