<svg xmlns="http://www.w3.org/2000/svg" width="96" height="97" viewBox="0 0 96 97"><g><g><g><g><g><g opacity=".77"><path fill="#eff0fc" d="M0 28C0 16.402 9.402 7 21 7h42c11.598 0 21 9.402 21 21v50.927a17 17 0 0 1-10.097 15.535S52.384 104.024 42 89.976c-10.384-14.048-18.097-10.62-18.097-10.62A17 17 0 0 1 0 63.82z"/></g></g></g></g><g><g><g><path fill="#141e40" d="M30.437 24.52v4.627c11.933 0 21.642 9.67 21.642 21.556 0 11.885-9.709 21.555-21.642 21.555S8.796 62.588 8.796 50.703H4.15c0 14.436 11.792 26.182 26.287 26.182s26.288-11.746 26.288-26.182c0-14.437-11.793-26.183-26.288-26.183"/></g><g><path fill="#f6801c" d="M34.325 45.412v11.524h-8.368V45.434l4.198-3.167zM21.31 48.934v12.629h17.67V48.91l2.807 2.116 2.803-3.691-5.61-4.226V36.2h-4.646v3.41l-4.175-3.144-14.43 10.87 2.802 3.69z"/></g></g></g></g><g><g/><g/><g><path fill="#f888ae" d="M77 0l4 8h-8z"/></g><g><path fill="#f888ae" d="M77 13l4 8h-8z"/></g><g><path fill="#f888ae" d="M77 26l4 8h-8z"/></g><g><g><path fill="#f888ae" d="M77 39l4 8h-8z"/></g></g><g><g><path fill="#f888ae" d="M77 52l4 8h-8z"/></g></g><g><g><path fill="#f888ae" d="M92 13l4 8h-8z"/></g></g><g><g><path fill="#f888ae" d="M92 26l4 8h-8z"/></g></g><g><g><path fill="#f888ae" d="M92 39l4 8h-8z"/></g></g><g><g><path fill="#f888ae" d="M92 52l4 8h-8z"/></g></g></g></g></svg>