<svg xmlns="http://www.w3.org/2000/svg" width="110" height="94" viewBox="0 0 110 94"><g><g><g><g><g opacity=".35"><path fill="#cfd1f6" d="M15 25c0-11.598 9.402-21 21-21h42c11.598 0 21 9.402 21 21v50.927a17 17 0 0 1-10.097 15.535S67.384 101.024 57 86.976c-10.384-14.048-18.097-10.62-18.097-10.62A17 17 0 0 1 15 60.82z"/></g></g></g></g><g><g><path fill="#232740" d="M4.636 27.65h69.718v52.443l-9.13-9.645H4.637zM0 23v52.097h63.242L79 91.744V23z"/></g><g><path fill="#f58a3d" d="M33.978 46.374v14.114H29.13v-5.965h-4.636v5.965h-4.611V46.409l7.068-6.012zm-18.731 3.98v10.134h-3.969v4.65h31.347v-4.65h-4.01v-10.17l2.73 2.322 2.998-3.545-7.861-6.688V33.96h-4.636v4.504L26.95 34.3 9.56 49.095l2.999 3.545z"/></g><g><path fill="#f58a3d" d="M47.62 37.42h17.794v-4.65H47.62z"/></g><g><path fill="#f58a3d" d="M52.52 46.72h12.894v-4.65H52.52z"/></g><g><path fill="#f58a3d" d="M52.52 56.019h12.894V51.37H52.52z"/></g><g><path fill="#f58a3d" d="M52.52 65.32h12.894v-4.65H52.52z"/></g></g><g><g/><g/><g><path fill="#f888ae" d="M91 0l4 8h-8z"/></g><g><path fill="#f888ae" d="M91 13l4 8h-8z"/></g><g><path fill="#f888ae" d="M91 26l4 8h-8z"/></g><g><g><path fill="#f888ae" d="M91 39l4 8h-8z"/></g></g><g><g><path fill="#f888ae" d="M91 52l4 8h-8z"/></g></g><g><g><path fill="#f888ae" d="M106 13l4 8h-8z"/></g></g><g><g><path fill="#f888ae" d="M106 26l4 8h-8z"/></g></g><g><g><path fill="#f888ae" d="M106 39l4 8h-8z"/></g></g><g><g><path fill="#f888ae" d="M106 52l4 8h-8z"/></g></g></g></g></svg>