<?xml version="1.0" encoding="UTF-8"?>
<svg width="60px" height="60px" viewBox="0 0 60 60" version="1.1" xmlns="http://www.w3.org/2000/svg" xmlns:xlink="http://www.w3.org/1999/xlink">
    <!-- Generator: Sketch 55.2 (78181) - https://sketchapp.com -->
    <title>Group 36</title>
    <desc>Created with Sketch.</desc>
    <g id="Page-1" stroke="none" stroke-width="1" fill="none" fill-rule="evenodd">
        <g id="Home-Copy" transform="translate(-1265.000000, -5150.000000)">
            <g id="Group-36" transform="translate(1265.000000, 5150.000000)">
                <rect id="Rectangle-Copy-5" stroke="#E1E2F4" x="0.5" y="0.5" width="59" height="59" rx="29.5"></rect>
                <g id="Group-4" transform="translate(19.000000, 20.000000)" fill="#F5812E" stroke="#F5812E">
                    <path d="M6.85623342,1.56020741 C3.91607427,1.56020741 1.52403183,4.00986667 1.52403183,7.02011852 L1.52403183,14.7057778 C1.52403183,17.7163556 3.91607427,20.1660148 6.85623342,20.1660148 L15.3740053,20.1660148 C18.3141645,20.1660148 20.7062069,17.7163556 20.7062069,14.7057778 L20.7062069,7.02011852 C20.7062069,4.00986667 18.3141645,1.56020741 15.3740053,1.56020741 L6.85623342,1.56020741 Z M15.3740053,21.7258963 L6.85623342,21.7258963 C3.07607427,21.7258963 -5.61328761e-13,18.5768 -5.61328761e-13,14.7057778 L-5.61328761e-13,7.02011852 C-5.61328761e-13,3.1490963 3.07607427,-6.92779167e-14 6.85623342,-6.92779167e-14 L15.3740053,-6.92779167e-14 C19.1541645,-6.92779167e-14 22.2299204,3.1490963 22.2299204,7.02011852 L22.2299204,14.7057778 C22.2299204,18.5768 19.1541645,21.7258963 15.3740053,21.7258963 L15.3740053,21.7258963 Z" id="Fill-8"></path>
                    <path d="M11.1150875,6.17440593 C8.58999469,6.17440593 6.53567109,8.27760593 6.53567109,10.8631763 C6.53567109,13.4487467 8.58999469,15.5519467 11.1150875,15.5519467 C13.6401804,15.5519467 15.6941857,13.4487467 15.6941857,10.8631763 C15.6941857,8.27760593 13.6401804,6.17440593 11.1150875,6.17440593 M11.1150875,17.1121541 C7.74967639,17.1121541 5.01227586,14.3088652 5.01227586,10.8631763 C5.01227586,7.41748741 7.74967639,4.61419852 11.1150875,4.61419852 C14.4801804,4.61419852 17.2178992,7.41748741 17.2178992,10.8631763 C17.2178992,14.3088652 14.4801804,17.1121541 11.1150875,17.1121541" id="Fill-9"></path>
                    <path d="M18.3906525,4.80639704 C18.3906525,5.5224563 17.8240743,6.10260444 17.1244456,6.10260444 C16.4251353,6.10260444 15.8579204,5.5224563 15.8579204,4.80639704 C15.8579204,4.09001185 16.4251353,3.50953778 17.1244456,3.50953778 C17.8240743,3.50953778 18.3906525,4.09001185 18.3906525,4.80639704" id="Fill-10"></path>
                </g>
            </g>
        </g>
    </g>
</svg>