<?xml version="1.0" encoding="UTF-8"?>
<svg width="178px" height="29px" viewBox="0 0 178 29" version="1.1" xmlns="http://www.w3.org/2000/svg" xmlns:xlink="http://www.w3.org/1999/xlink">
    <!-- Generator: Sketch 55.2 (78181) - https://sketchapp.com -->
    <title>Group 9</title>
    <desc>Created with Sketch.</desc>
    <g id="Page-1" stroke="none" stroke-width="1" fill="none" fill-rule="evenodd">
        <g id="Home-Copy" transform="translate(-103.000000, -47.000000)">
            <g id="Group-26" transform="translate(103.000000, 32.000000)">
                <g id="Group-9" transform="translate(0.000000, 15.000000)">
                    <g id="Group-3" transform="translate(87.914634, 0.000000)"></g>
                    <path d="M112.430812,14.6865114 C112.430812,12.2115686 111.592336,10.1003686 109.917135,8.35291143 C108.240184,6.60628286 106.181155,5.73296857 103.737423,5.73296857 C101.293692,5.73296857 99.2320394,6.60628286 97.5568375,8.35291143 C95.8816356,10.1003686 95.0431603,12.2115686 95.0431603,14.6865114 C95.0431603,17.1614543 95.8816356,19.2660257 97.5568375,20.9993971 C99.2320394,22.7335971 101.293692,23.6002829 103.737423,23.6002829 C106.181155,23.6002829 108.240184,22.7335971 109.917135,20.9993971 C111.592336,19.2660257 112.430812,17.1614543 112.430812,14.6865114 M114.650717,24.8903686 C111.689386,27.6304543 108.04521,29.0000829 103.716439,29.0000829 C99.3859201,29.0000829 95.741744,27.6304543 92.7804137,24.8903686 C89.8190834,22.1511114 88.3388554,18.7431971 88.3388554,14.6666257 C88.3388554,10.5908829 89.8190834,7.18214 92.7804137,4.44205429 C95.741744,1.70279714 99.3859201,0.333168571 103.716439,0.333168571 C108.04521,0.333168571 111.689386,1.70279714 114.650717,4.44205429 C117.612047,7.18214 119.092275,10.5908829 119.092275,14.6666257 C119.092275,18.7431971 117.612047,22.1511114 114.650717,24.8903686" id="Fill-1" fill="#232740"></path>
                    <polygon id="Fill-4" fill="#232740" points="132.957317 17.7780166 140.473874 0 147.609756 0 135.744523 27.9259259 130.170111 27.9259259 118.304878 0 125.441642 0"></polygon>
                    <g id="Group-8" transform="translate(146.524390, 0.000000)" fill="#232740">
                        <path d="M24.3087008,14.6865114 C24.3087008,12.2115686 23.4710999,10.1003686 21.7950237,8.35291143 C20.1189475,6.60628286 18.059918,5.73296857 15.6153123,5.73296857 C13.1715809,5.73296857 11.1108028,6.60628286 9.43560091,8.35291143 C7.7595247,10.1003686 6.92104942,12.2115686 6.92104942,14.6865114 C6.92104942,17.1614543 7.7595247,19.2660257 9.43560091,20.9993971 C11.1108028,22.7335971 13.1715809,23.6002829 15.6153123,23.6002829 C18.059918,23.6002829 20.1189475,22.7335971 21.7950237,20.9993971 C23.4710999,19.2660257 24.3087008,17.1614543 24.3087008,14.6865114 M26.52948,24.8903686 C23.5681497,27.6304543 19.9230992,29.0000829 15.5943286,29.0000829 C11.2646836,29.0000829 7.6196331,27.6304543 4.65917713,24.8903686 C1.69872117,22.1511114 0.217618869,18.7431971 0.217618869,14.6666257 C0.217618869,10.5908829 1.69872117,7.18214 4.65917713,4.44205429 C7.6196331,1.70279714 11.2646836,0.333168571 15.5943286,0.333168571 C19.9230992,0.333168571 23.5681497,1.70279714 26.52948,4.44205429 C29.4899359,7.18214 30.9710382,10.5908829 30.9710382,14.6666257 C30.9710382,18.7431971 29.4899359,22.1511114 26.52948,24.8903686" id="Fill-6"></path>
                    </g>
                    <polyline id="Fill-9" fill="#232740" points="63.6661816 0 57.5243902 0 57.5243902 27.9259259 64.0866959 27.9259259 64.0866959 10.4272019 78.0962309 27.9259259 84.6585366 27.9259259 84.6585366 26.1042712"></polyline>
                    <polygon id="Fill-11" fill="#232740" points="84.6585366 16.1111111 84.6585366 0 78.1463415 0 78.1463415 7.95956209"></polygon>
                    <polygon id="Fill-13" fill="#232740" points="43.0583729 13.9796371 39.0793262 9.01739953 39.0731707 9.02573663 31.8176759 0 23.8780488 0 35.088848 13.9804709 23.8780488 27.9259259 31.8748334 27.9259259 39.0731707 18.9485444 46.271508 27.9259259 54.2682927 27.9259259 43.0574935 13.9804709"></polygon>
                    <polygon id="Fill-15" fill="#232740" points="54.2682927 1.07407407 46.5794329 1.07407407 43.4146341 4.94872849 47.2684324 9.66666667"></polygon>
                    <polygon id="Fill-17" fill="#F5812E" points="13.0243902 17.1851852 20.6219512 17.1851852 20.6219512 11.8148148 13.0243902 11.8148148"></polygon>
                    <polygon id="Fill-19" fill="#232740" points="6.37064906 22.4126065 6.37064906 5.55333749 20.5810482 5.55333749 20.5810482 0 0 0 0 27.9259259 20.6219512 27.9259259 20.6219512 22.4126065"></polygon>
                </g>
            </g>
        </g>
    </g>
</svg>