<svg xmlns="http://www.w3.org/2000/svg" xmlns:xlink="http://www.w3.org/1999/xlink" width="164" height="27" viewBox="0 0 164 27"><defs><path id="qnb5a" d="M184.39 30.31h28.335V57H184.39z"/><path id="qnb5e" d="M208.632 53.174c-2.728 2.55-6.086 3.826-10.074 3.826-3.99 0-7.347-1.275-10.076-3.826-2.728-2.55-4.092-5.724-4.092-9.52 0-3.794 1.364-6.967 4.092-9.518 2.729-2.55 6.086-3.826 10.076-3.826 3.988 0 7.346 1.275 10.074 3.826 2.729 2.55 4.093 5.724 4.093 9.519s-1.364 6.968-4.093 9.519m-2.047-9.506c0-2.302-.772-4.267-2.315-5.893-1.545-1.625-3.442-2.438-5.693-2.438-2.25 0-4.15.813-5.692 2.438-1.543 1.626-2.316 3.59-2.316 5.893s.773 4.262 2.316 5.874c1.543 1.614 3.442 2.42 5.692 2.42 2.251 0 4.148-.806 5.693-2.42 1.543-1.612 2.315-3.57 2.315-5.874"/><path id="qnb5f" d="M225.5 46.552L232.425 30H239l-10.932 26h-5.136L212 30h6.575z"/><path id="qnb5b" d="M238.2 30.31h28.335V57H238.2z"/><path id="qnb5h" d="M262.442 53.174c-2.728 2.55-6.086 3.826-10.075 3.826-3.989 0-7.347-1.275-10.075-3.826-2.727-2.55-4.092-5.724-4.092-9.52 0-3.794 1.365-6.967 4.092-9.518 2.728-2.55 6.086-3.826 10.075-3.826 3.989 0 7.347 1.275 10.075 3.826 2.728 2.55 4.093 5.724 4.093 9.519s-1.365 6.968-4.093 9.519m-2.048-9.506c0-2.302-.771-4.267-2.315-5.893-1.544-1.625-3.44-2.438-5.692-2.438-2.251 0-4.15.813-5.692 2.438-1.544 1.626-2.317 3.59-2.317 5.893s.773 4.262 2.317 5.874c1.543 1.614 3.44 2.42 5.692 2.42 2.251 0 4.148-.806 5.692-2.42 1.544-1.612 2.315-3.57 2.315-5.874"/><path id="qnb5i" d="M161.659 30H156v26h6.046V39.708L174.954 56H181v-1.696"/><path id="qnb5j" d="M181 45V30h-6v7.41z"/><path id="qnb5k" d="M142.672 43.016l-3.666-4.62-.006.007L132.315 30H125l10.329 13.016L125 56h7.368L139 47.642 145.632 56H153l-10.33-12.984z"/><path id="qnb5l" d="M153 31h-7.084L143 34.607 146.55 39z"/><path id="qnb5c" d="M103 57h164V30H103z"/><path id="qnb5n" d="M115 46h7v-5h-7z"/><path id="qnb5o" d="M108.87 50.867V35.17h13.092V30H103v26h19v-5.133z"/><clipPath id="qnb5d"><use xlink:href="#qnb5a"/></clipPath><clipPath id="qnb5g"><use xlink:href="#qnb5b"/></clipPath><clipPath id="qnb5m"><use xlink:href="#qnb5c"/></clipPath></defs><g><g transform="translate(-103 -30)"><g><g/><g clip-path="url(#qnb5d)"><use xlink:href="#qnb5e"/></g></g><g><use xlink:href="#qnb5f"/></g><g><g/><g clip-path="url(#qnb5g)"><use xlink:href="#qnb5h"/></g></g><g><use xlink:href="#qnb5i"/></g><g><use xlink:href="#qnb5j"/></g><g><use xlink:href="#qnb5k"/></g><g><use xlink:href="#qnb5l"/></g><g/><g clip-path="url(#qnb5m)"><use xlink:href="#qnb5n"/></g><g clip-path="url(#qnb5m)"><use xlink:href="#qnb5o"/></g></g></g></svg>