<svg xmlns="http://www.w3.org/2000/svg" xmlns:xlink="http://www.w3.org/1999/xlink" width="24" height="27" viewBox="0 0 24 27"><defs><path id="qij7a" d="M894.167 674.753a.804.804 0 0 1-1.596-.129.804.804 0 0 1 1.602-.092.804.804 0 0 0-.006.221zm-.792-5.753a5.631 5.631 0 0 0-5.625 5.624c0 1.926.971 3.697 2.598 4.739 1.66 1.064 3.7 1.177 5.594.305a.803.803 0 1 0-.672-1.46c-1.385.638-2.864.565-4.055-.198a4.006 4.006 0 0 1-1.858-3.386 4.022 4.022 0 0 1 4.018-4.017 4.022 4.022 0 0 1 4.018 4.017.804.804 0 1 1-1.607.012v-.012c0-1.329-1.082-2.41-2.411-2.41a2.413 2.413 0 0 0-2.41 2.41c0 1.33 1.08 2.41 2.41 2.41.617 0 1.18-.232 1.607-.615a2.4 2.4 0 0 0 1.607.616c1.33 0 2.411-1.082 2.411-2.41a5.631 5.631 0 0 0-5.625-5.625z"/><path id="qij7b" d="M903.4 690.3l-6.069-6.001 6.069-6zm-19.669 1.118l6.4-6.328h5.738l6.4 6.328zm-1.131-1.119v-12l6.069 6zm1.6-15.165v2.51l-1.269-1.255zm1.6-7.552h14.4v11.643l-4.331 4.283h-5.738l-4.331-4.283v-11.643zm16 7.552l1.269 1.255-1.269 1.254zm3.2 1.253a.792.792 0 0 0-.234-.558l-2.966-2.932v-6.106a.796.796 0 0 0-.8-.791h-16c-.442 0-.8.354-.8.791v6.106l-2.966 2.932-.007.009a.79.79 0 0 0-.227.55v14.239c0 1.31 1.078 2.373 2.4 2.373h19.2c1.325 0 2.4-1.066 2.4-2.373v-14.238-.002z"/></defs><g><g transform="translate(-881 -666)"><g><use xlink:href="#qij7a"/></g><g><use xlink:href="#qij7b"/></g></g></g></svg>