<svg xmlns="http://www.w3.org/2000/svg" xmlns:xlink="http://www.w3.org/1999/xlink" width="34" height="34" viewBox="0 0 34 34"><defs><path id="wfuha" d="M469.867 691.933H456.14c-.723 0-1.31-.575-1.31-1.282V686.6h16.347v4.05c0 .708-.588 1.283-1.31 1.283zm-13.727-29.866h13.726c.723 0 1.311.575 1.311 1.282v.851H454.83v-.85c0-.708.588-1.283 1.31-1.283zm-1.31 3.2h16.347v20.256H454.83zM469.865 661H456.14c-1.323 0-2.4 1.054-2.4 2.35v27.3c0 1.296 1.077 2.35 2.4 2.35h13.726c1.323 0 2.4-1.054 2.4-2.35v-27.3c0-1.296-1.077-2.35-2.4-2.35z"/><path id="wfuhb" d="M463.425 690.268a1.054 1.054 0 0 1 0-2.105 1.054 1.054 0 0 1 0 2.105zm0-3.158a2.107 2.107 0 0 0-2.105 2.105c0 1.161.944 2.106 2.105 2.106a2.107 2.107 0 0 0 2.106-2.106 2.107 2.107 0 0 0-2.106-2.105z"/><path id="wfuhc" d="M461.031 663.522h2.246c.31 0 .561-.188.561-.421 0-.233-.25-.421-.561-.421h-2.246c-.31 0-.561.188-.561.421 0 .233.251.421.561.421z"/><path id="wfuhd" d="M464.401 663.522h.562c.31 0 .561-.188.561-.421 0-.233-.25-.421-.561-.421h-.562c-.31 0-.561.188-.561.421 0 .233.25.421.561.421z"/><path id="wfuhe" d="M477.317 663.69a.464.464 0 0 0-.702 0 .585.585 0 0 0 0 .772c1.853 2.04 1.853 5.359 0 7.4a.585.585 0 0 0 0 .771c.097.107.224.16.351.16a.473.473 0 0 0 .35-.16c2.24-2.465 2.24-6.477 0-8.943z"/><path id="wfuhf" d="M474.974 664.526a.656.656 0 0 0-.848 0 .488.488 0 0 0 0 .75c.742.657 1.15 1.532 1.15 2.463 0 .93-.408 1.805-1.15 2.462a.488.488 0 0 0 0 .75.64.64 0 0 0 .424.156.64.64 0 0 0 .424-.156c.969-.856 1.502-1.998 1.502-3.212 0-1.215-.532-2.357-1.502-3.213z"/><path id="wfuhg" d="M449.38 664.462a.585.585 0 0 0 0-.772.464.464 0 0 0-.7 0c-2.24 2.466-2.24 6.478 0 8.943.096.107.223.16.35.16a.473.473 0 0 0 .35-.16.585.585 0 0 0 0-.772c-1.852-2.04-1.852-5.359 0-7.399z"/><path id="wfuhh" d="M451.88 664.526a.656.656 0 0 0-.848 0c-.969.856-1.502 1.998-1.502 3.212 0 1.215.533 2.356 1.502 3.213a.64.64 0 0 0 .424.156.64.64 0 0 0 .424-.156.488.488 0 0 0 0-.75c-.742-.657-1.15-1.532-1.15-2.463 0-.93.408-1.805 1.15-2.462a.49.49 0 0 0 0-.75z"/></defs><g><g transform="translate(-446 -660)"><g><use xlink:href="#wfuha"/><use fill="#fff" fill-opacity="0" stroke="#141e40" stroke-miterlimit="50" stroke-width=".5" xlink:href="#wfuha"/></g><g><use xlink:href="#wfuhb"/><use fill="#fff" fill-opacity="0" stroke="#141e40" stroke-miterlimit="50" stroke-width=".5" xlink:href="#wfuhb"/></g><g><use xlink:href="#wfuhc"/><use fill="#fff" fill-opacity="0" stroke="#141e40" stroke-miterlimit="50" stroke-width=".5" xlink:href="#wfuhc"/></g><g><use xlink:href="#wfuhd"/><use fill="#fff" fill-opacity="0" stroke="#141e40" stroke-miterlimit="50" stroke-width=".5" xlink:href="#wfuhd"/></g><g><use xlink:href="#wfuhe"/><use fill="#fff" fill-opacity="0" stroke="#141e40" stroke-miterlimit="50" stroke-width=".5" xlink:href="#wfuhe"/></g><g><use xlink:href="#wfuhf"/><use fill="#fff" fill-opacity="0" stroke="#141e40" stroke-miterlimit="50" stroke-width=".5" xlink:href="#wfuhf"/></g><g><use xlink:href="#wfuhg"/><use fill="#fff" fill-opacity="0" stroke="#141e40" stroke-miterlimit="50" stroke-width=".5" xlink:href="#wfuhg"/></g><g><use xlink:href="#wfuhh"/><use fill="#fff" fill-opacity="0" stroke="#141e40" stroke-miterlimit="50" stroke-width=".5" xlink:href="#wfuhh"/></g></g></g></svg>