<svg xmlns="http://www.w3.org/2000/svg" xmlns:xlink="http://www.w3.org/1999/xlink" width="34" height="28" viewBox="0 0 34 28"><defs><path id="zxupa" d="M1331.485 449.01c0 .52-.427.943-.951.943h-6.333v-1.813h1.312c.397 0 .72-.319.72-.713a.716.716 0 0 0-.72-.713h-19.102c-.397 0-.72.32-.72.713 0 .394.323.713.72.713h1.312v1.813h-6.333a.948.948 0 0 1-.95-.942v-11.352c0-.52.426-.943.95-.943h3.179v2.709c0 .394.322.713.719.713h21.348c.397 0 .72-.32.72-.713v-2.709h3.178c.524 0 .95.423.95.943zm-22.32 8.537v-9.398h13.614v9.398zm-1.44-20.83v1.987h-1.716v-1.988zm1.44-4.26h13.614v6.247h-13.615zm15.043 4.26h1.707v1.987h-1.707zm6.335-1.428h-6.335v-3.545a.717.717 0 0 0-.72-.714h-15.043c-.397 0-.72.32-.72.714v3.545h-6.335a2.383 2.383 0 0 0-2.39 2.37v11.361a2.383 2.383 0 0 0 2.39 2.37h6.335v6.87c0 .394.323.714.72.714h15.044c.397 0 .72-.32.72-.714v-6.87h6.334a2.383 2.383 0 0 0 2.39-2.37v-11.36a2.383 2.383 0 0 0-2.39-2.37z"/><path id="zxupb" d="M1302.66 442.585c0-.494.403-.895.9-.895s.9.4.9.895a.898.898 0 0 1-.9.895c-.497 0-.9-.4-.9-.895z"/><path id="zxupc" d="M1315.758 453.57h-3.358c-.398 0-.72.32-.72.714 0 .394.322.713.72.713h3.358c.398 0 .72-.32.72-.713a.717.717 0 0 0-.72-.714z"/><path id="zxupd" d="M1319.535 449.96h-7.135c-.398 0-.72.32-.72.714 0 .394.322.713.72.713h7.135c.397 0 .72-.32.72-.713a.717.717 0 0 0-.72-.714z"/></defs><g><g transform="translate(-1299 -431)"><g><use xlink:href="#zxupa"/></g><g><use xlink:href="#zxupb"/></g><g><use xlink:href="#zxupc"/></g><g><use xlink:href="#zxupd"/></g></g></g></svg>