<svg xmlns="http://www.w3.org/2000/svg" width="38" height="51" viewBox="0 0 38 51"><g><g><g/><g/><g/><g/><g/><g/><g/><g><g><path fill="#cbcbea" d="M3.72 18.1l2.8 5.6H.92z"/></g><g><path fill="#cbcbea" d="M14.22 9l2.8 5.6h-5.6z"/></g><g><path fill="#cbcbea" d="M14.22 18.1l2.8 5.6h-5.6z"/></g><g><path fill="#cbcbea" d="M24.72 9l2.8 5.6h-5.6z"/></g><g><path fill="#cbcbea" d="M19.82-.1l2.8 5.6h-5.6z"/></g><g><path fill="#cbcbea" d="M24.72 18.1l2.8 5.6h-5.6z"/></g><g><path fill="#cbcbea" d="M3.72 27.2l2.8 5.6H.92z"/></g><g><path fill="#cbcbea" d="M14.22 27.2l2.8 5.6h-5.6z"/></g><g><path fill="#cbcbea" d="M24.72 27.2l2.8 5.6h-5.6z"/></g></g><g><g><path fill="#cbcbea" d="M3.72 36.3l2.8 5.6H.92z"/></g></g><g><g><path fill="#cbcbea" d="M14.22 36.3l2.8 5.6h-5.6z"/></g></g><g><g><path fill="#cbcbea" d="M24.72 36.3l2.8 5.6h-5.6z"/></g></g><g><g><path fill="#cbcbea" d="M3.72 45.4l2.8 5.6H.92z"/></g></g><g><g><path fill="#cbcbea" d="M14.22 45.4l2.8 5.6h-5.6z"/></g></g><g><g><path fill="#cbcbea" d="M24.72 45.4l2.8 5.6h-5.6z"/></g></g><g><g><path fill="#cbcbea" d="M35.22 18.1l2.8 5.6h-5.6z"/></g></g><g><g><path fill="#cbcbea" d="M35.22 27.2l2.8 5.6h-5.6z"/></g></g><g><g><path fill="#cbcbea" d="M35.22 36.3l2.8 5.6h-5.6z"/></g></g><g><g><path fill="#cbcbea" d="M35.22 45.4l2.8 5.6h-5.6z"/></g></g></g></g></svg>