<svg xmlns="http://www.w3.org/2000/svg" width="115" height="196" viewBox="0 0 115 196"><g><g transform="rotate(-203 65 2842.5)"><g><path fill="#f5812e" d="M63.31 25.266a.413.413 0 0 1-.533-.242.416.416 0 0 1 .24-.536c1.031-.39 2.078-.76 3.141-1.107a.416.416 0 0 1 .256.79c-1.05.343-2.086.709-3.104 1.095zm-8.954 4.137a.414.414 0 0 1-.4-.725 69.004 69.004 0 0 1 2.953-1.537.414.414 0 0 1 .364.743c-.992.486-1.964.993-2.917 1.519zm-8.25 5.416a.414.414 0 1 1-.504-.656 65.192 65.192 0 0 1 2.692-1.962.414.414 0 0 1 .47.681 64.603 64.603 0 0 0-2.659 1.937zm-7.898 6.656a.417.417 0 0 1-.018-.587 60.917 60.917 0 0 1 2.35-2.371.413.413 0 0 1 .585.014c.158.166.15.43-.014.587-.8.764-1.573 1.544-2.319 2.34a.412.412 0 0 1-.584.017zm-5.529 7.73a.413.413 0 0 1-.573.12.417.417 0 0 1-.118-.576 56.028 56.028 0 0 1 1.915-2.74.412.412 0 0 1 .579-.084c.183.137.22.397.084.58-.66.888-1.29 1.789-1.887 2.7zm-4.604 8.725a.413.413 0 1 1-.766-.315c.42-1.026.876-2.045 1.369-3.055a.413.413 0 1 1 .743.365 49.46 49.46 0 0 0-1.346 3.005zm-2.727 9.48a.414.414 0 1 1-.815-.14 43.95 43.95 0 0 1 .688-3.29.414.414 0 1 1 .803.202 43.324 43.324 0 0 0-.676 3.228zm7.678 9.66c-.228-.007-.408-.21-.401-.453.006-.243.197-.434.425-.427a39.61 39.61 0 0 1 3.334.243c.227.027.391.244.366.486-.024.24-.229.416-.455.39a39.007 39.007 0 0 0-3.269-.24zm-9.085-3.129a.414.414 0 0 1 .827.005c-.005.935.024 1.867.087 2.797.509-.084 1.018-.159 1.526-.224a.415.415 0 1 1 .105.824 41.98 41.98 0 0 0-1.78.268.412.412 0 0 1-.322.056c-.377.069-.753.142-1.129.22a.416.416 0 0 1-.17-.813c.317-.066.634-.129.95-.187-.068-.98-.099-1.962-.094-2.946zm18.49 4.046a.413.413 0 0 1 .512-.285c1.095.317 2.154.68 3.17 1.084a.416.416 0 0 1-.306.772 33.253 33.253 0 0 0-3.093-1.057.415.415 0 0 1-.283-.514zm-29.007 2.882a.416.416 0 0 1 .19-.556 39.138 39.138 0 0 1 3.066-1.342.413.413 0 0 1 .535.238.416.416 0 0 1-.237.537c-1.011.393-2.013.83-3 1.314a.413.413 0 0 1-.554-.191zm38.106 1.785a.418.418 0 0 1-.093-.58.41.41 0 0 1 .575-.094c.94.682 1.798 1.416 2.563 2.195a.417.417 0 0 1-.002.587.41.41 0 0 1-.584-.003 19.532 19.532 0 0 0-2.459-2.105zM5.818 86.502a.411.411 0 0 1-.584-.039.42.42 0 0 1 .04-.588 37.552 37.552 0 0 1 2.613-2.104.412.412 0 0 1 .578.092.42.42 0 0 1-.091.582 36.702 36.702 0 0 0-2.556 2.057zm20.919.86a.413.413 0 0 1-.53-.247 36.846 36.846 0 0 1-1.01-3.203.413.413 0 1 1 .8-.214c.28 1.053.607 2.098.986 3.13a.416.416 0 0 1-.246.534zm30.66 2.805a.417.417 0 0 1 .264-.525.41.41 0 0 1 .517.268c.348 1.085.549 2.215.586 3.385a.414.414 0 0 1-.398.43.413.413 0 0 1-.423-.403 11.492 11.492 0 0 0-.546-3.155zm-58.63 3.819a.417.417 0 0 1-.106-.578 44.637 44.637 0 0 1 1.992-2.691.412.412 0 0 1 .582-.064.417.417 0 0 1 .063.584 43.923 43.923 0 0 0-1.955 2.641.413.413 0 0 1-.575.108zm32.82 1.475a.416.416 0 0 1-.055.585.413.413 0 0 1-.582-.056c-.291-.354-.556-.71-.791-1.066a37.647 37.647 0 0 1-1.088-1.744.413.413 0 1 1 .713-.422c.336.574.691 1.143 1.064 1.706.22.333.468.666.74.997zm7.954 6.355a.412.412 0 0 1-.551.192 29.698 29.698 0 0 1-2.921-1.642.418.418 0 0 1-.127-.574.41.41 0 0 1 .57-.128c.9.577 1.854 1.114 2.84 1.597.204.1.29.35.19.555zm17-2.274a.414.414 0 1 1 .747.357l-.028.058c-.534 1.116-1.242 2.006-2.085 2.697a.413.413 0 0 1-.582-.059.417.417 0 0 1 .059-.584c.753-.618 1.385-1.415 1.862-2.413l.026-.056zm-61.892 3.006a.414.414 0 1 1-.762-.323 52.71 52.71 0 0 1 1.394-3.042.412.412 0 0 1 .555-.186.416.416 0 0 1 .185.557c-.487.98-.945 1.978-1.372 2.994zm54.057 1.224a.415.415 0 0 1-.013.83 18.34 18.34 0 0 1-3.36-.386.416.416 0 0 1 .166-.814c1.092.224 2.17.353 3.207.37zm-57.58 8.495a.416.416 0 0 1-.307-.499c.252-1.09.532-2.17.839-3.235a.411.411 0 1 1 .79.231 62.45 62.45 0 0 0-.828 3.193.412.412 0 0 1-.495.31zm-1.03 9.48a.415.415 0 0 1-.447.38.416.416 0 0 1-.377-.45c.094-1.116.213-2.227.358-3.33a.415.415 0 1 1 .82.108 71.541 71.541 0 0 0-.354 3.292zm.02 9.898c.013.23-.206.424-.488.434-.282.01-.52-.168-.533-.397a65.092 65.092 0 0 1-.095-3.34c0-.229.228-.415.51-.416.282 0 .512.186.512.415.003 1.1.035 2.202.094 3.304zm.812 9.859a.415.415 0 0 1-.337.478.412.412 0 0 1-.473-.342c-.18-1.097-.34-2.199-.478-3.304a.415.415 0 0 1 .356-.464.412.412 0 0 1 .459.36 83.2 83.2 0 0 0 .473 3.272zm2.286 9.623a.413.413 0 1 1-.778.284c-.28-.78-.492-1.454-.639-2.004a87.467 87.467 0 0 1-.316-1.228.414.414 0 1 1 .803-.203c.1.406.205.812.313 1.215.141.532.346 1.183.617 1.936zm4.207 8.919a.412.412 0 1 1-.716.41c-.577-1.02-1.1-2.001-1.574-2.934a.411.411 0 1 1 .734-.377c.468.923.986 1.892 1.556 2.9zm5.407 8.309a.417.417 0 0 1-.087.581.413.413 0 0 1-.578-.087 84.682 84.682 0 0 1-1.928-2.72.417.417 0 0 1 .109-.578.413.413 0 0 1 .575.11 84.373 84.373 0 0 0 1.909 2.694zm6.338 7.612a.415.415 0 0 1-.606.568 85.876 85.876 0 0 1-2.235-2.478.416.416 0 0 1 .627-.545 86.596 86.596 0 0 0 2.214 2.455zm7.154 6.824c.175.148.197.41.05.585a.413.413 0 0 1-.583.05 84.477 84.477 0 0 1-2.5-2.202.417.417 0 0 1-.027-.587.413.413 0 0 1 .584-.027c.8.733 1.625 1.46 2.476 2.18zm7.914 5.928c.191.126.244.384.119.575a.413.413 0 0 1-.573.12 83.427 83.427 0 0 1-2.743-1.89.417.417 0 0 1-.095-.58.413.413 0 0 1 .577-.095 82.431 82.431 0 0 0 2.715 1.87zm8.56 4.94a.416.416 0 0 1 .186.558.413.413 0 0 1-.555.186 84.49 84.49 0 0 1-2.947-1.547.416.416 0 0 1-.163-.565.413.413 0 0 1 .561-.164 83.177 83.177 0 0 0 2.918 1.533zm9.082 3.895a.416.416 0 0 1 .249.531.414.414 0 0 1-.53.25 85.773 85.773 0 0 1-3.106-1.191.416.416 0 0 1 .31-.77c1.007.408 2.032.802 3.077 1.18z"/></g><g transform="matrix(1 0 0 -1 0 355)"><g><path fill="none" stroke="#f5812e" stroke-miterlimit="20" stroke-width=".7" d="M87.358 1.83v0l-3.134 16.237v0l4.225 6.403v0l-6.759 2.112v0L76.35 44.53v0l67.2-38.496v0L87.358 1.83v0z"/></g><g><path fill="#f5812e" d="M88.287 24.93l55.263-18.2-59.5 11.878 4.237 6.322z"/></g></g></g></g></svg>