<svg xmlns="http://www.w3.org/2000/svg" width="163" height="280" viewBox="0 0 163 280"><g><g transform="scale(1 -1) rotate(-23 -604.164 0)"><g><g><path fill="#f5812e" d="M90.408 36.382a.59.59 0 0 1-.762-.345.595.595 0 0 1 .344-.765 102.542 102.542 0 0 1 4.486-1.583.594.594 0 0 1 .366 1.129c-1.502.49-2.98 1.013-4.434 1.564zm-12.794 5.924a.588.588 0 0 1-.802-.232.596.596 0 0 1 .231-.807 98.18 98.18 0 0 1 4.211-2.205.588.588 0 0 1 .79.272.595.595 0 0 1-.27.794 96.138 96.138 0 0 0-4.16 2.178zm-11.785 7.738a.59.59 0 0 1-.828-.109.596.596 0 0 1 .108-.832 93.156 93.156 0 0 1 3.846-2.813.59.59 0 0 1 .822.152c.186.27.118.64-.15.825a92.307 92.307 0 0 0-3.798 2.777zm-11.282 9.494a.595.595 0 0 1-.025-.838 87.028 87.028 0 0 1 3.357-3.388.59.59 0 0 1 .836.02.596.596 0 0 1-.02.84 85.921 85.921 0 0 0-3.313 3.342.589.589 0 0 1-.835.024zm-7.898 11.044a.59.59 0 0 1-.819.17.595.595 0 0 1-.169-.822 80.037 80.037 0 0 1 2.736-3.914.588.588 0 0 1 .827-.12.595.595 0 0 1 .12.83 79.177 79.177 0 0 0-2.695 3.856zm-6.577 12.455a.59.59 0 1 1-1.094-.45 71.947 71.947 0 0 1 1.954-4.357.59.59 0 1 1 1.062.522 70.46 70.46 0 0 0-1.922 4.285zm-3.896 13.538a.591.591 0 1 1-1.165-.2c.266-1.566.594-3.13.984-4.688a.591.591 0 1 1 1.147.288 61.614 61.614 0 0 0-.966 4.6zm10.969 13.813c-.326-.01-.584-.3-.574-.646.01-.347.282-.62.608-.61 1.609.049 3.2.166 4.762.347.325.038.56.348.524.693-.036.345-.327.595-.651.557a55.723 55.723 0 0 0-4.67-.34zm-12.976-4.47a.593.593 0 0 1 1.184.007 54.482 54.482 0 0 0 .123 3.997c.729-.12 1.457-.228 2.185-.32a.592.592 0 0 1 .15 1.177c-.85.108-1.699.236-2.549.382a.59.59 0 0 1-.46.081c-.539.097-1.077.202-1.615.315a.594.594 0 0 1-.242-1.162c.453-.095.906-.184 1.359-.268a56.004 56.004 0 0 1-.135-4.208zm26.41 5.78a.59.59 0 0 1 .73-.406c1.562.452 3.073.97 4.522 1.548.302.121.45.467.33.771a.59.59 0 0 1-.766.332 47.365 47.365 0 0 0-4.412-1.51.594.594 0 0 1-.403-.735zm-41.437 4.126a.597.597 0 0 1 .272-.796 55.97 55.97 0 0 1 4.387-1.923.59.59 0 0 1 .766.34.597.597 0 0 1-.339.77 55.047 55.047 0 0 0-4.294 1.883.59.59 0 0 1-.792-.274zm54.438 2.542a.596.596 0 0 1-.135-.828.59.59 0 0 1 .825-.135 29.098 29.098 0 0 1 3.673 3.135.595.595 0 0 1-.004.84.59.59 0 0 1-.836-.005 27.965 27.965 0 0 0-3.523-3.007zM8.276 123.85a.589.589 0 0 1-.834-.056.596.596 0 0 1 .056-.837 53.614 53.614 0 0 1 3.733-2.996.59.59 0 0 1 .826.13.596.596 0 0 1-.13.83 52.395 52.395 0 0 0-3.651 2.929zm29.884 1.242a.59.59 0 0 1-.758-.353 52.635 52.635 0 0 1-1.442-4.577.59.59 0 1 1 1.142-.306 51.33 51.33 0 0 0 1.409 4.474.594.594 0 0 1-.351.762zm43.8 4.005a.59.59 0 1 1 1.124-.367c.501 1.546.79 3.158.843 4.824a.593.593 0 0 1-.572.613.592.592 0 0 1-.61-.574 16.236 16.236 0 0 0-.784-4.496zm-83.756 5.457a.595.595 0 0 1-.152-.826c.901-1.318 1.85-2.6 2.846-3.844a.589.589 0 0 1 .83-.092c.255.206.295.58.091.835A62.744 62.744 0 0 0-.974 134.4a.59.59 0 0 1-.822.153zm46.896 2.108a.594.594 0 0 1-.914.756 18.115 18.115 0 0 1-1.134-1.524 53.758 53.758 0 0 1-1.558-2.491.594.594 0 0 1 1.021-.603c.483.82.99 1.633 1.524 2.437.316.476.67.952 1.06 1.425zm11.366 9.078a.59.59 0 0 1-.79.274 42.569 42.569 0 0 1-4.184-2.346.596.596 0 0 1-.182-.82.59.59 0 0 1 .816-.182c1.29.823 2.656 1.59 4.068 2.28.293.144.415.5.272.794zm24.27-3.249a.59.59 0 1 1 1.068.51l-.04.084c-.762 1.594-1.774 2.865-2.978 3.853a.59.59 0 0 1-.831-.085.596.596 0 0 1 .083-.834c1.077-.883 1.98-2.022 2.66-3.448l.038-.08zm-88.416 4.295a.59.59 0 1 1-1.09-.461 75.295 75.295 0 0 1 1.993-4.347.59.59 0 0 1 .792-.265c.292.146.41.502.265.795a73.89 73.89 0 0 0-1.96 4.278zm77.233 1.748a.593.593 0 0 1-.019 1.187c-1.553-.026-3.17-.218-4.807-.553a.594.594 0 0 1 .236-1.162c1.564.32 3.107.504 4.59.528zm-82.264 12.137a.595.595 0 0 1-.441-.714c.363-1.557.765-3.1 1.206-4.622a.591.591 0 1 1 1.135.331 88.795 88.795 0 0 0-1.19 4.562.592.592 0 0 1-.71.443zm-1.473 13.52a.592.592 0 1 1-1.178-.1c.135-1.588.305-3.169.512-4.739a.592.592 0 1 1 1.172.155 101.364 101.364 0 0 0-.506 4.684zm.028 14.162c.019.327-.294.605-.697.62-.402.013-.744-.24-.761-.567a92.986 92.986 0 0 1-.136-4.77c0-.328.326-.595.729-.596.403 0 .73.265.731.593.004 1.571.05 3.146.134 4.72zm1.175 14.093a.592.592 0 0 1-1.166.196c-.26-1.57-.49-3.148-.688-4.73a.594.594 0 0 1 .512-.663c.324-.041.62.19.66.515.197 1.566.424 3.127.682 4.682zm3.25 13.726a.59.59 0 1 1-1.112.404 36.32 36.32 0 0 1-.91-2.855c-.155-.582-.307-1.165-.453-1.75a.59.59 0 1 1 1.147-.29c.144.58.293 1.157.447 1.733.202.758.495 1.684.882 2.758zm6.025 12.765a.591.591 0 1 1-1.028.587 105.317 105.317 0 0 1-2.257-4.202.59.59 0 1 1 1.053-.54 104.8 104.8 0 0 0 2.232 4.155zm7.71 11.85a.59.59 0 1 1-.95.705c-.97-1.31-1.887-2.605-2.754-3.879a.59.59 0 1 1 .976-.667 120.28 120.28 0 0 0 2.728 3.842zm9.03 10.883a.596.596 0 0 1-.026.839.586.586 0 0 1-.833-.027c-1.101-1.18-2.159-2.363-3.175-3.541a.597.597 0 0 1 .058-.837.587.587 0 0 1 .832.059 123.545 123.545 0 0 0 3.144 3.507zm10.245 9.748c.25.211.281.586.07.836a.59.59 0 0 1-.832.072 120.667 120.667 0 0 1-3.572-3.146.595.595 0 0 1-.038-.838.59.59 0 0 1 .835-.039 119.842 119.842 0 0 0 3.537 3.115zm11.306 8.476c.272.18.348.55.169.824a.588.588 0 0 1-.819.17 119.188 119.188 0 0 1-3.917-2.705.598.598 0 0 1-.137-.83.59.59 0 0 1 .825-.138 117.77 117.77 0 0 0 3.879 2.68zm12.228 7.051c.292.146.41.503.266.796a.59.59 0 0 1-.793.267 120.674 120.674 0 0 1-4.21-2.212.595.595 0 0 1-.233-.805.59.59 0 0 1 .802-.235c1.36.749 2.749 1.479 4.168 2.19zm12.974 5.563a.595.595 0 0 1 .356.76.59.59 0 0 1-.757.357 122.53 122.53 0 0 1-4.437-1.702.594.594 0 0 1 .443-1.1 121.72 121.72 0 0 0 4.395 1.685z"/></g><g transform="matrix(1 0 0 -1 0 507)"><g><path fill="none" stroke="#f5812e" stroke-miterlimit="20" d="M124.765 2.89v0l-4.476 23.195v0l6.036 9.148v0l-9.656 3.016v0L109.04 63.89v0l96-54.994v0L124.765 2.89v0z"/></g><g><path fill="#f5812e" d="M126.093 35.89l78.947-26-85 16.969 6.053 9.031z"/></g></g></g></g></g></svg>