<svg xmlns="http://www.w3.org/2000/svg" width="96" height="103" viewBox="0 0 96 103"><defs><clipPath id="pt7oa"><path d="M23.51 6h32.328v38.789H23.51z"/></clipPath></defs><g><g><g><g><g><g opacity=".93"><path fill="#f3f4fd" d="M11 34c0-11.598 9.402-21 21-21h42c11.598 0 21 9.402 21 21v50.927a17 17 0 0 1-10.097 15.535S63.384 110.024 53 95.976c-10.384-14.048-18.097-10.62-18.097-10.62A17 17 0 0 1 11 69.82z"/></g></g></g></g></g><g><g><path fill="#243642" d="M54.593 62.86l10.192-8.168 9.924 8.278v17.402H67.04v-8.956h-4.65v8.956h-7.797zm-49.941-.07l10.059-8.116 10.04 8.081v17.617h-7.89v-8.956H12.21v8.956H4.652zm24.749.045l10.278-8.181 10.263 8.087v17.631h-7.945v-8.956h-4.65v8.956H29.4zm22.937-4.11l-12.674-9.987-12.535 9.977-12.422-9.997L0 60.582v24.42h79.36V60.809L64.845 48.7z"/></g><g><g><g/><g clip-path="url(#pt7oa)"><path fill="#f6801c" d="M39.674 10.618c6.356 0 11.526 5.144 11.526 11.47 0 4.623-3.39 9.192-6.233 12.21a46.631 46.631 0 0 1-5.256 4.755 52.134 52.134 0 0 1-5.307-4.958c-4.092-4.43-6.255-8.583-6.255-12.008zm-.041 34.171s5.06-3.455 8.653-7.254c5.012-5.3 7.552-10.496 7.552-15.444C55.838 13.218 48.588 6 39.674 6 30.761 6 23.51 13.218 23.51 22.091z"/></g></g><g><path fill="#f6801c" d="M46.7 21.115l-3.28-3.265-4.704 4.683-2.686-2.675-3.28 3.265 5.966 5.94z"/></g></g></g><g><g/><g/><g><path fill="#f888ae" d="M77 0l4 8h-8z"/></g><g><path fill="#f888ae" d="M77 13l4 8h-8z"/></g><g><path fill="#f888ae" d="M77 26l4 8h-8z"/></g><g><g><path fill="#f888ae" d="M77 39l4 8h-8z"/></g></g><g><g><path fill="#f888ae" d="M77 52l4 8h-8z"/></g></g><g><g><path fill="#f888ae" d="M92 13l4 8h-8z"/></g></g><g><g><path fill="#f888ae" d="M92 26l4 8h-8z"/></g></g><g><g><path fill="#f888ae" d="M92 39l4 8h-8z"/></g></g><g><g><path fill="#f888ae" d="M92 52l4 8h-8z"/></g></g></g></g></svg>