<?xml version="1.0" encoding="UTF-8"?>
<svg width="101px" height="100px" viewBox="0 0 101 100" version="1.1" xmlns="http://www.w3.org/2000/svg" xmlns:xlink="http://www.w3.org/1999/xlink">
    <!-- Generator: Sketch 55.2 (78181) - https://sketchapp.com -->
    <title>Group 32</title>
    <desc>Created with Sketch.</desc>
    <defs>
        <polygon id="path-1" points="6.3963964e-05 0 70.8784685 0 70.8784685 79 6.3963964e-05 79"></polygon>
    </defs>
    <g id="Page-1" stroke="none" stroke-width="1" fill="none" fill-rule="evenodd">
        <g id="Home" transform="translate(-1011.000000, -1938.000000)">
            <g id="Group-32" transform="translate(1011.000000, 1938.000000)">
                <g id="Group-11" transform="translate(0.000000, 7.000000)">
                    <g id="Group-17-Copy" transform="translate(5.000000, 0.000000)" fill="#EFF0FC" opacity="0.765625">
                        <g id="Group-16">
                            <g id="Group-6">
                                <path d="M41.4880091,0 L42,0 L42.5119909,0 C65.4251856,-4.20908559e-15 84,18.5748144 84,41.4880091 L84,69.1381464 C83.9999957,81.9951153 73.577363,92.417748 60.7203941,92.417748 C53.3359577,92.417748 46.3894602,88.9142452 42,82.9760182 C42,82.9760182 42,82.9760182 42,82.9760182 C39.2023004,79.1911847 35.248712,76.9359286 30.139235,76.2102498 C12.8489522,73.7545866 2.13869815e-15,58.9518048 0,41.4880091 C-2.80605706e-15,18.5748144 18.5748144,4.20908559e-15 41.4880091,0 Z" id="Rectangle"></path>
                            </g>
                        </g>
                    </g>
                    <g id="Group-9">
                        <g id="Group-3">
                            <mask id="mask-2" fill="white">
                                <use xlink:href="#path-1"></use>
                            </mask>
                            <g id="Clip-2"></g>
                            <path d="M62.3853973,20.7725403 L66.0185505,17.1538306 L62.7340009,13.8823387 L59.1424243,17.4596371 C53.1995324,12.1220403 45.7349378,8.99007258 37.7624694,8.47975806 L37.7624694,4.62723387 L42.2527396,4.62723387 L42.2527396,0 L28.6264964,0 L28.6264964,4.62659677 L33.1167667,4.62659677 L33.1167667,8.47975806 C25.1711631,8.98816129 17.7321541,12.100379 11.7994964,17.4048468 L8.26292883,13.8823387 L4.97773964,17.1538306 L8.54692883,20.7088306 C3.01724414,27.1059194 6.3963964e-05,35.1728387 6.3963964e-05,43.7016532 C6.3963964e-05,53.1300484 3.68630721,61.9946129 10.3794964,68.6611935 C17.0739649,75.3284113 25.9732712,79 35.4392982,79 C44.9059649,79 53.8052712,75.3284113 60.4991,68.6611935 C67.1922892,61.9946129 70.8785324,53.1300484 70.8785324,43.7016532 C70.8785324,35.200871 67.8811811,27.1594355 62.3853973,20.7725403 M35.4392982,74.3727661 C18.4594243,74.3727661 4.64512703,60.6140242 4.64512703,43.7016532 C4.64512703,26.7892823 18.4594243,13.0305403 35.4392982,13.0305403 C52.4191721,13.0305403 66.2334694,26.7892823 66.2334694,43.7016532 C66.2334694,60.6140242 52.4191721,74.3727661 35.4392982,74.3727661" id="Fill-1" fill="#232740" mask="url(#mask-2)"></path>
                        </g>
                        <g id="Group-8" transform="translate(8.954955, 17.201613)" fill="#F6801C">
                            <path d="M26.4843432,0.317274194 L26.4843432,4.94387097 C38.4174604,4.94387097 48.1259108,14.6137258 48.1259108,26.5000403 C48.1259108,38.3850806 38.4174604,48.0555726 26.4843432,48.0555726 C14.5512261,48.0555726 4.84277568,38.3857177 4.84277568,26.5000403 L0.197072973,26.5000403 C0.197072973,40.9366532 11.9894694,52.6821694 26.4843432,52.6821694 C40.9792171,52.6821694 52.7716135,40.9366532 52.7716135,26.5000403 C52.7716135,12.0627903 40.9792171,0.317274194 26.4843432,0.317274194" id="Fill-4"></path>
                            <path d="M17.3525919,24.7307589 L17.3525919,37.3599282 L35.0219973,37.3599282 L35.0219973,24.7084605 L37.8300153,26.8236218 L40.6322766,23.1329202 L35.0219973,18.9070573 L35.0219973,11.9971056 L30.3762946,11.9971056 L30.3762946,15.4074847 L26.2020063,12.262775 L11.771736,23.1329202 L14.5739973,26.8236218 L17.3525919,24.7307589 Z M30.3762946,21.2088879 L30.3762946,32.7333315 L21.9982946,32.7333315 L21.9982946,21.2311863 L26.2020063,18.0641782 L30.3762946,21.2088879 Z" id="Fill-6"></path>
                        </g>
                    </g>
                </g>
                <g id="Group-21" transform="translate(78.000000, 0.000000)">
                    <g id="Triangle-Copy-2"></g>
                    <g id="Triangle-Copy-6" transform="translate(0.000000, 13.000000)"></g>
                    <polygon id="Triangle" fill="#F888AE" points="4 0 8 8 0 8"></polygon>
                    <polygon id="Triangle" fill="#F888AE" points="4 13 8 21 0 21"></polygon>
                    <polygon id="Triangle" fill="#F888AE" points="4 26 8 34 0 34"></polygon>
                    <g id="Triangle-Copy-10" transform="translate(0.000000, 39.000000)" fill="#F888AE">
                        <polygon id="Triangle" points="4 0 8 8 0 8"></polygon>
                    </g>
                    <g id="Triangle-Copy-13" transform="translate(0.000000, 52.000000)" fill="#F888AE">
                        <polygon id="Triangle" points="4 0 8 8 0 8"></polygon>
                    </g>
                    <g id="Triangle-Copy-3" transform="translate(15.000000, 13.000000)" fill="#F888AE">
                        <polygon id="Triangle" points="4 0 8 8 0 8"></polygon>
                    </g>
                    <g id="Triangle-Copy-16" transform="translate(15.000000, 26.000000)" fill="#F888AE">
                        <polygon id="Triangle" points="4 0 8 8 0 8"></polygon>
                    </g>
                    <g id="Triangle-Copy-17" transform="translate(15.000000, 39.000000)" fill="#F888AE">
                        <polygon id="Triangle" points="4 0 8 8 0 8"></polygon>
                    </g>
                    <g id="Triangle-Copy-18" transform="translate(15.000000, 52.000000)" fill="#F888AE">
                        <polygon id="Triangle" points="4 0 8 8 0 8"></polygon>
                    </g>
                </g>
            </g>
        </g>
    </g>
</svg>