<?xml version="1.0" encoding="UTF-8"?>
<svg width="15px" height="26px" viewBox="0 0 15 26" version="1.1" xmlns="http://www.w3.org/2000/svg" xmlns:xlink="http://www.w3.org/1999/xlink">
    <!-- Generator: Sketch 55.2 (78181) - https://sketchapp.com -->
    <title>Group 6</title>
    <desc>Created with Sketch.</desc>
    <defs>
        <polygon id="path-1" points="0 0.12621519 14.9161835 0.12621519 14.9161835 24.3544304 0 24.3544304"></polygon>
    </defs>
    <g id="Page-1" stroke="none" stroke-width="1" fill="none" fill-rule="evenodd">
        <g id="Oferty-Copy" transform="translate(-803.000000, -901.000000)">
            <g id="Group-6" transform="translate(803.000000, 901.000000)">
                <g id="Group-3" transform="translate(0.000000, 1.515241)">
                    <mask id="mask-2" fill="white">
                        <use xlink:href="#path-1"></use>
                    </mask>
                    <g id="Clip-2"></g>
                    <path d="M13.8054241,24.3544304 L1.11067722,24.3544304 C0.498360759,24.3544304 -8.2278481e-05,23.8561519 -8.2278481e-05,23.2436709 L-8.2278481e-05,1.23697468 C-8.2278481e-05,0.624493671 0.498360759,0.12621519 1.11067722,0.12621519 L4.2563481,0.12621519 L4.2563481,1.68950633 L1.56320886,1.68950633 L1.56320886,22.7911392 L13.3528924,22.7911392 L13.3528924,1.68950633 L11.6436392,1.68950633 L11.6436392,0.12621519 L13.8054241,0.12621519 C14.4179051,0.12621519 14.9161835,0.624493671 14.9161835,1.23697468 L14.9161835,23.2436709 C14.9161835,23.8561519 14.4179051,24.3544304 13.8054241,24.3544304" id="Fill-1" fill="#F5812E" mask="url(#mask-2)"></path>
                </g>
                <path d="M4.87129747,1.56329114 C4.81238608,1.56329114 4.76433544,1.61134177 4.76433544,1.67025316 L4.76433544,3.17594937 C4.76433544,3.23486076 4.81238608,3.28274684 4.87129747,3.28274684 L10.481538,3.28274684 C10.5404494,3.28274684 10.5885,3.23486076 10.5885,3.17594937 L10.5885,1.67025316 C10.5885,1.61134177 10.5404494,1.56329114 10.481538,1.56329114 L4.87129747,1.56329114 Z M10.481538,4.84603797 L4.87129747,4.84603797 C3.95027215,4.84603797 3.2010443,4.09681013 3.2010443,3.17594937 L3.2010443,1.67025316 C3.2010443,0.749392405 3.95027215,0 4.87129747,0 L10.481538,0 C11.4023987,0 12.1517911,0.749392405 12.1517911,1.67025316 L12.1517911,3.17594937 C12.1517911,4.09681013 11.4023987,4.84603797 10.481538,4.84603797 L10.481538,4.84603797 Z" id="Fill-4" fill="#F5812E"></path>
            </g>
        </g>
    </g>
</svg>