<?xml version="1.0" encoding="UTF-8"?>
<svg width="26px" height="26px" viewBox="0 0 26 26" version="1.1" xmlns="http://www.w3.org/2000/svg" xmlns:xlink="http://www.w3.org/1999/xlink">
    <!-- Generator: Sketch 55.2 (78181) - https://sketchapp.com -->
    <title>Artboard Copy</title>
    <desc>Created with Sketch.</desc>
    <defs>
        <polygon id="path-1" points="0.125571515 0.0530422345 10.4164946 0.0530422345 10.4164946 10.344086 0.125571515 10.344086"></polygon>
        <polygon id="path-3" points="0 25.4790215 25.9326237 25.4790215 25.9326237 0 0 0"></polygon>
    </defs>
    <g id="Artboard-Copy" stroke="none" stroke-width="1" fill="none" fill-rule="evenodd">
        <g id="Group-15" transform="translate(0.000000, -0.000000)">
            <g id="Group-3" transform="translate(15.516129, 15.134935)">
                <mask id="mask-2" fill="white">
                    <use xlink:href="#path-1"></use>
                </mask>
                <g id="Clip-2"></g>
                <path d="M7.02111828,6.79157742 L6.95611828,6.75858817 C6.91544086,6.80150215 6.87378495,6.84301828 6.82737634,6.88719032 C6.80850538,6.9050828 6.78949462,6.92297527 6.77006452,6.94044839 C6.74392473,6.96407204 6.71736559,6.98699677 6.69052688,7.00964194 C6.67025806,7.0266957 6.64956989,7.04319032 6.62888172,7.05982473 L6.62315054,7.06443763 C6.03898925,7.53006129 5.33475269,7.77258817 4.58858065,7.76462043 C2.96232258,7.74714731 1.58054839,6.48460968 1.42622581,4.86562043 C1.23374194,2.84656667 2.92234409,1.15936237 4.94153763,1.35394301 C6.56024731,1.5100828 7.82124731,2.89297527 7.83704301,4.51923333 C7.84445161,5.26512581 7.60136559,5.96866344 7.13546237,6.55240538 C7.11798925,6.57435161 7.10037634,6.59615806 7.08234409,6.61768495 C7.05969892,6.64452366 7.03691398,6.67122258 7.01315054,6.69750215 C6.99917204,6.71301828 6.98477419,6.72839462 6.97037634,6.74363118 L7.02111828,6.79157742 Z M9.13075269,9.05399677 L9.12376344,9.05707204 L9.06617204,8.99360968 L9.1306129,9.05217957 C9.1306129,9.05217957 9.13075269,9.05273871 9.13075269,9.05399677 L9.13075269,9.05399677 Z M9.96792473,8.07592151 L8.53373118,6.77424409 C8.91939785,6.09824409 9.12292473,5.3311043 9.12292473,4.55180323 C9.12292473,1.96494301 6.92816129,-0.119110753 4.30313978,0.0642870968 C2.08712903,0.218889247 0.291870968,2.01386774 0.136849462,4.22987849 C-0.046827957,6.85531935 2.03722581,9.05036237 4.62422581,9.05036237 C5.40366667,9.05036237 6.17080645,8.84683548 6.84666667,8.46116882 L8.17168817,9.9210828 C8.41113978,10.184857 8.74019355,10.334986 9.09902151,10.3436527 L9.13117204,10.3441363 C9.32463441,10.3458892 9.51893548,10.3092656 9.69045161,10.2198032 C10.2312796,9.93785699 10.498828,9.38570645 10.394129,8.81007204 C10.3422688,8.52491075 10.1824946,8.27078172 9.96792473,8.07592151 L9.96792473,8.07592151 Z" id="Fill-1" fill="#F5812E" mask="url(#mask-2)"></path>
            </g>
            <polygon id="Fill-4" fill="#F5812E" points="9.94670538 1.45511935 9.4636086 0.950076344 10.221243 0.225431183 10.7043398 0.730474194"></polygon>
            <path d="M6.80298387,4.46158602 L6.3198871,3.95654301 L7.89176882,2.4532957 L8.37486559,2.95833871 L6.80298387,4.46158602 Z M3.65922043,7.46808065 L3.17612366,6.96303763 L4.74800538,5.45979032 L5.23110215,5.96483333 L3.65922043,7.46808065 Z M0.658736559,10.3810591 L6.98924731e-05,10.1476183 C0.0495537634,10.0075538 0.128252688,9.88300538 0.233510753,9.77718817 L1.60438172,8.46614516 L2.08747849,8.97132796 L0.722478495,10.2766398 C0.696897849,10.3023602 0.673553763,10.339543 0.658736559,10.3810591 L0.658736559,10.3810591 Z" id="Fill-6" fill="#F5812E"></path>
            <polygon id="Fill-8" fill="#F5812E" points="3.2813957 12.1696914 2.58247097 12.1696914 2.58247097 11.4707667 1.88354624 11.4707667 1.88354624 10.7718419 3.2813957 10.7718419"></polygon>
            <mask id="mask-4" fill="white">
                <use xlink:href="#path-3"></use>
            </mask>
            <g id="Clip-11"></g>
            <path d="M2.58252688,15.9736452 L3.28145161,15.9736452 L3.28145161,14.0717312 L2.58252688,14.0717312 L2.58252688,15.9736452 Z M9.02954839,17.6934194 L9.72847312,17.6934194 L9.72847312,15.7915054 L9.02954839,15.7915054 L9.02954839,17.6934194 Z M2.58252688,19.7774731 L3.28145161,19.7774731 L3.28145161,17.8755591 L2.58252688,17.8755591 L2.58252688,19.7774731 Z M4.34465591,20.8919785 L6.24656989,20.8919785 L6.24656989,20.1930538 L4.34465591,20.1930538 L4.34465591,20.8919785 Z M8.73613978,20.8919785 L8.14848387,20.8919785 L8.14848387,20.1930538 L8.73613978,20.1930538 C8.89787097,20.1930538 9.02954839,20.0613763 9.02954839,19.8996452 L9.02954839,19.5951935 L9.72847312,19.5951935 L9.72847312,19.8996452 C9.72847312,20.4467634 9.28325806,20.8919785 8.73613978,20.8919785 L8.73613978,20.8919785 Z" id="Fill-10" fill="#F5812E" mask="url(#mask-4)"></path>
            <polygon id="Fill-12" fill="#F5812E" mask="url(#mask-4)" points="9.72843118 13.8857333 9.02950645 13.8857333 9.02950645 12.4878839 11.2685817 12.4878839 11.2685817 13.1868086 9.72843118 13.1868086"></polygon>
            <path d="M22.278771,10.5208022 L11.9461473,0.18803871 C11.824814,0.0667053763 11.6635022,-0.000111827957 11.4914269,-0.000111827957 L11.4914269,1.55164086 L20.2722978,10.3325118 L19.1851903,10.3325118 C18.8306957,10.3325118 18.5423194,10.6208882 18.5423194,10.9753828 L18.5423194,16.0337806 L19.8280613,16.0337806 L19.8280613,11.6182538 L21.8241903,11.6182538 C22.0851688,11.6182538 22.3183301,11.4623935 22.4181366,11.2214043 C22.5178032,10.9805548 22.4631473,10.7054581 22.278771,10.5208022" id="Fill-13" fill="#F5812E" mask="url(#mask-4)"></path>
            <path d="M14.6667677,12.6912849 C14.6667677,12.3367903 14.3783914,12.048414 14.023757,12.048414 L11.4914129,12.048414 L11.4914129,13.3342957 L13.3810258,13.3342957 L13.3810258,20.3965108 C13.3810258,20.7510054 13.6694022,21.0393817 14.023757,21.0393817 L15.9427247,21.0393817 L15.9427247,19.7535 L14.6667677,19.7535 L14.6667677,12.6912849 Z" id="Fill-14" fill="#F5812E" mask="url(#mask-4)"></path>
        </g>
    </g>
</svg>