<?xml version="1.0" encoding="UTF-8"?>
<svg width="26px" height="26px" viewBox="0 0 26 26" version="1.1" xmlns="http://www.w3.org/2000/svg" xmlns:xlink="http://www.w3.org/1999/xlink">
    <!-- Generator: Sketch 55.2 (78181) - https://sketchapp.com -->
    <title>Artboard</title>
    <desc>Created with Sketch.</desc>
    <defs>
        <polygon id="path-1" points="0.0299456239 0.0541937122 10.547 0.0541937122 10.547 10.5714286 0.0299456239 10.5714286"></polygon>
        <polygon id="path-3" points="0 0.103857143 22.4341467 0.103857143 22.4341467 21.6055571 0 21.6055571"></polygon>
    </defs>
    <g id="Artboard" stroke="none" stroke-width="1" fill="none" fill-rule="evenodd">
        <g id="Group-7">
            <g id="Group-3" transform="translate(15.428571, 15.610429)">
                <mask id="mask-2" fill="white">
                    <use xlink:href="#path-1"></use>
                </mask>
                <g id="Clip-2"></g>
                <path d="M7.07704286,6.94082857 L7.01061429,6.90711429 C6.96918571,6.95097143 6.92647143,6.9934 6.87904286,7.03854286 C6.85975714,7.05682857 6.84047143,7.07511429 6.82061429,7.09297143 C6.7939,7.11711429 6.76661429,7.14054286 6.73918571,7.16368571 C6.71847143,7.18111429 6.69747143,7.19797143 6.67632857,7.21497143 L6.67032857,7.21968571 C6.07332857,7.69554286 5.35361429,7.9434 4.59104286,7.93525714 C2.92904286,7.91754286 1.5169,6.62711429 1.35918571,4.97254286 C1.16247143,2.90925714 2.88818571,1.18482857 4.95175714,1.38382857 C6.60604286,1.54325714 7.89475714,2.95654286 7.9109,4.61854286 C7.91847143,5.38082857 7.67004286,6.09982857 7.19404286,6.6964 C7.17618571,6.71882857 7.15818571,6.74111429 7.13961429,6.76311429 C7.11661429,6.79054286 7.09318571,6.81782857 7.06904286,6.84468571 C7.05461429,6.86054286 7.0399,6.87625714 7.02518571,6.89182857 L7.07704286,6.94082857 Z M9.23304286,9.25297143 L9.2259,9.25611429 L9.16704286,9.19125714 L9.2329,9.25111429 C9.2329,9.25111429 9.23304286,9.25168571 9.23304286,9.25297143 L9.23304286,9.25297143 Z M10.0886143,8.2534 L8.62304286,6.92311429 C9.01718571,6.23225714 9.22518571,5.44825714 9.22518571,4.65182857 C9.22518571,2.00811429 6.98204286,-0.121742857 4.29932857,0.0656857143 C2.03461429,0.223685714 0.1999,2.05811429 0.0414714286,4.32282857 C-0.146242857,7.00597143 1.98361429,9.24925714 4.62761429,9.24925714 C5.42404286,9.24925714 6.20804286,9.04125714 6.89875714,8.64711429 L8.2529,10.1391143 C8.49775714,10.4086857 8.8339,10.5621143 9.20061429,10.5709714 L9.23347143,10.5714657 C9.43118571,10.5732571 9.62975714,10.5358286 9.80504286,10.4444 C10.3577571,10.1562571 10.6311857,9.59197143 10.5241857,9.00368571 C10.4713286,8.7124 10.3079,8.45254286 10.0886143,8.2534 L10.0886143,8.2534 Z" id="Fill-1" fill="#F5812E" mask="url(#mask-2)"></path>
            </g>
            <g id="Group-6" transform="translate(0.000000, 0.039000)">
                <mask id="mask-4" fill="white">
                    <use xlink:href="#path-3"></use>
                </mask>
                <g id="Clip-5"></g>
                <path d="M15.7662143,20.2915571 L14.4622143,20.2915571 L14.4622143,13.0741286 C14.4622143,12.7117 14.1673571,12.4171286 13.8050714,12.4171286 L8.62907143,12.4171286 C8.26678571,12.4171286 7.97207143,12.7117 7.97207143,13.0741286 L7.97207143,20.2915571 L4.01121429,20.2915571 L4.01121429,11.3204143 C4.01121429,10.9581286 3.7165,10.6635571 3.35435714,10.6635571 L2.24307143,10.6635571 L11.2170714,1.68955714 L20.1909286,10.6635571 L19.0799286,10.6635571 C18.7176429,10.6635571 18.4227857,10.9581286 18.4227857,11.3204143 L18.4227857,16.4901286 L19.7367857,16.4901286 L19.7367857,11.9774143 L21.7769286,11.9774143 C22.0435,11.9774143 22.2817857,11.8182714 22.3839286,11.5718429 C22.4857857,11.3257 22.4299286,11.0445571 22.2415,10.8558429 L11.6816429,0.295985714 C11.5577857,0.171985714 11.3927857,0.103842857 11.2170714,0.103842857 C11.0412143,0.103842857 10.8763571,0.171985714 10.7525,0.295985714 L0.192357143,10.8559857 C0.00435714286,11.0445571 -0.0516428571,11.3254143 0.0500714286,11.5719857 C0.152071429,11.8182714 0.3905,11.9774143 0.657214286,11.9774143 L2.69721429,11.9774143 L2.69721429,20.9487 C2.69721429,21.3109857 2.99207143,21.6055571 3.35435714,21.6055571 L8.62907143,21.6055571 C8.99121429,21.6055571 9.28592857,21.3109857 9.28592857,20.9487 L9.28592857,13.7311286 L13.1480714,13.7311286 L13.1480714,20.9487 C13.1480714,21.3109857 13.4427857,21.6055571 13.8050714,21.6055571 L15.7662143,21.6055571 L15.7662143,20.2915571 Z" id="Fill-4" fill="#F5812E" mask="url(#mask-4)"></path>
            </g>
        </g>
    </g>
</svg>