<?xml version="1.0" encoding="UTF-8"?>
<svg width="20px" height="18px" viewBox="0 0 20 18" version="1.1" xmlns="http://www.w3.org/2000/svg" xmlns:xlink="http://www.w3.org/1999/xlink">
    <!-- Generator: Sketch 55.2 (78181) - https://sketchapp.com -->
    <title>Group 11</title>
    <desc>Created with Sketch.</desc>
    <g id="Page-1" stroke="none" stroke-width="1" fill="none" fill-rule="evenodd">
        <g id="RYNEK-PIERWOTNY" transform="translate(-131.000000, -831.000000)">
            <g id="Group-11" transform="translate(131.000000, 831.000000)">
                <g id="Group-10" fill="#F5812E">
                    <g id="Group-14">
                        <path d="M1.28378378,16.3047401 L18.6124324,16.3047401 L18.6124324,1.67203742 L1.28378378,1.67203742 L1.28378378,16.3047401 Z M18.9840541,17.5885239 L0.912162162,17.5885239 C0.409189189,17.5885239 0,17.1793347 0,16.6763617 L0,1.3004158 C0,0.797442827 0.409189189,0.388253638 0.912162162,0.388253638 L18.9840541,0.388253638 C19.487027,0.388253638 19.8962162,0.797442827 19.8962162,1.3004158 L19.8962162,16.6763617 C19.8962162,17.1793347 19.487027,17.5885239 18.9840541,17.5885239 L18.9840541,17.5885239 Z" id="Fill-1"></path>
                    </g>
                    <path d="M15.5762474,10 L13.718815,10 C13.3643555,10 13.0769231,9.65554656 13.0769231,9.23076923 C13.0769231,8.8059919 13.3643555,8.46153846 13.718815,8.46153846 L15.5762474,8.46153846 C15.9307069,8.46153846 16.2181393,8.8059919 16.2181393,9.23076923 C16.2181393,9.65554656 15.9307069,10 15.5762474,10" id="Fill-9"></path>
                </g>
                <path d="M19.0242144,5.78880405 L13.8103043,5.78880405 C12.0051658,5.78880405 10.541812,7.2521579 10.541812,9.05729636 C10.541812,10.8624348 12.0051658,12.3257887 13.8103043,12.3257887 L19.0242144,12.3257887" id="Path-5" stroke="#F5812E" stroke-width="2"></path>
            </g>
        </g>
    </g>
</svg>