<?xml version="1.0" encoding="UTF-8"?>
<svg width="26px" height="23px" viewBox="0 0 26 23" version="1.1" xmlns="http://www.w3.org/2000/svg" xmlns:xlink="http://www.w3.org/1999/xlink">
    <!-- Generator: Sketch 55.2 (78181) - https://sketchapp.com -->
    <title>kredyty-firmowe</title>
    <desc>Created with Sketch.</desc>
    <defs>
        <polygon id="path-1" points="5.71428571e-05 0.0376857143 25.9498571 0.0376857143 25.9498571 21.9999714 5.71428571e-05 21.9999714"></polygon>
    </defs>
    <g id="Page-1" stroke="none" stroke-width="1" fill="none" fill-rule="evenodd">
        <g id="kredyty-firmowe">
            <g id="Group-3" transform="translate(0.000000, 0.105286)">
                <mask id="mask-2" fill="white">
                    <use xlink:href="#path-1"></use>
                </mask>
                <g id="Clip-2"></g>
                <path d="M24.5927714,20.6428286 L1.3572,20.6428286 L1.3572,9.97297143 L7.26391429,9.97297143 L14.8963429,9.97297143 L16.3850571,9.97297143 L24.0174857,9.97297143 L24.5927714,9.97297143 L24.5927714,20.6428286 Z M10.8496286,1.39482857 L13.5392,1.39482857 L13.5392,8.61582857 L9.01005714,8.61582857 L10.8496286,1.39482857 Z M19.9707714,1.39482857 L22.6603429,1.39482857 L22.6603429,8.61582857 L18.1312,8.61582857 L19.9707714,1.39482857 Z M25.0480571,8.61582857 L24.0174857,8.61582857 L24.0174857,0.0376857143 L18.9160571,0.0376857143 L16.7307714,8.61582857 L14.8963429,8.61582857 L14.8963429,0.0376857143 L9.79491429,0.0376857143 L7.60962857,8.61582857 L0.901914286,8.61582857 C0.404628571,8.61582857 5.71428571e-05,9.0204 5.71428571e-05,9.51768571 L5.71428571e-05,21.0981143 C5.71428571e-05,21.5954 0.404628571,21.9999714 0.901914286,21.9999714 L25.0480571,21.9999714 C25.5453429,21.9999714 25.9499143,21.5954 25.9499143,21.0981143 L25.9499143,9.51768571 C25.9499143,9.0204 25.5453429,8.61582857 25.0480571,8.61582857 L25.0480571,8.61582857 Z" id="Fill-1" fill="#F5812E" mask="url(#mask-2)"></path>
            </g>
            <path d="M19.1982429,14.6232429 L17.2346714,14.6232429 C16.8599571,14.6232429 16.5561,14.3193857 16.5561,13.9446714 C16.5561,13.5699571 16.8599571,13.2661 17.2346714,13.2661 L19.1982429,13.2661 C19.5729571,13.2661 19.8768143,13.5699571 19.8768143,13.9446714 C19.8768143,14.3193857 19.5729571,14.6232429 19.1982429,14.6232429" id="Fill-4" fill="#F5812E"></path>
            <path d="M13.9567571,14.6232429 L11.9931857,14.6232429 C11.6184714,14.6232429 11.3146143,14.3193857 11.3146143,13.9446714 C11.3146143,13.5699571 11.6184714,13.2661 11.9931857,13.2661 L13.9567571,13.2661 C14.3314714,13.2661 14.6353286,13.5699571 14.6353286,13.9446714 C14.6353286,14.3193857 14.3314714,14.6232429 13.9567571,14.6232429" id="Fill-6" fill="#F5812E"></path>
            <path d="M8.71527143,14.6232429 L6.7517,14.6232429 C6.37698571,14.6232429 6.07312857,14.3193857 6.07312857,13.9446714 C6.07312857,13.5699571 6.37698571,13.2661 6.7517,13.2661 L8.71527143,13.2661 C9.08998571,13.2661 9.39384286,13.5699571 9.39384286,13.9446714 C9.39384286,14.3193857 9.08998571,14.6232429 8.71527143,14.6232429" id="Fill-8" fill="#F5812E"></path>
            <path d="M19.1982429,18.2337429 L17.2346714,18.2337429 C16.8599571,18.2337429 16.5561,17.9298857 16.5561,17.5551714 C16.5561,17.1804571 16.8599571,16.8766 17.2346714,16.8766 L19.1982429,16.8766 C19.5729571,16.8766 19.8768143,17.1804571 19.8768143,17.5551714 C19.8768143,17.9298857 19.5729571,18.2337429 19.1982429,18.2337429" id="Fill-10" fill="#F5812E"></path>
            <path d="M13.9567571,18.2337429 L11.9931857,18.2337429 C11.6184714,18.2337429 11.3146143,17.9298857 11.3146143,17.5551714 C11.3146143,17.1804571 11.6184714,16.8766 11.9931857,16.8766 L13.9567571,16.8766 C14.3314714,16.8766 14.6353286,17.1804571 14.6353286,17.5551714 C14.6353286,17.9298857 14.3314714,18.2337429 13.9567571,18.2337429" id="Fill-12" fill="#F5812E"></path>
            <path d="M8.71527143,18.2337429 L6.7517,18.2337429 C6.37698571,18.2337429 6.07312857,17.9298857 6.07312857,17.5551714 C6.07312857,17.1804571 6.37698571,16.8766 6.7517,16.8766 L8.71527143,16.8766 C9.08998571,16.8766 9.39384286,17.1804571 9.39384286,17.5551714 C9.39384286,17.9298857 9.08998571,18.2337429 8.71527143,18.2337429" id="Fill-14" fill="#F5812E"></path>
        </g>
    </g>
</svg>