<?xml version="1.0" encoding="UTF-8"?>
<svg width="26px" height="22px" viewBox="0 0 26 22" version="1.1" xmlns="http://www.w3.org/2000/svg" xmlns:xlink="http://www.w3.org/1999/xlink">
    <!-- Generator: Sketch 55.2 (78181) - https://sketchapp.com -->
    <title>kredyty-gotowkowe</title>
    <desc>Created with Sketch.</desc>
    <defs>
        <polygon id="path-1" points="0 -1.42108547e-14 25.9945019 -1.42108547e-14 25.9945019 21.1119172 0 21.1119172"></polygon>
    </defs>
    <g id="Page-1" stroke="none" stroke-width="1" fill="none" fill-rule="evenodd">
        <g id="kredyty-gotowkowe">
            <mask id="mask-2" fill="white">
                <use xlink:href="#path-1"></use>
            </mask>
            <g id="Clip-2"></g>
            <path d="M24.4212535,14.1931019 L19.5042726,14.1931019 C18.0035592,14.1931019 16.7125019,13.2794586 16.1575592,11.9794586 C16.5882981,11.6527197 16.8683363,11.1370255 16.8683363,10.5559172 C16.8683363,9.97480892 16.5882981,9.45911465 16.1575592,9.1323758 C16.7125019,7.8323758 18.0035592,6.91873248 19.5042726,6.91873248 L24.4212535,6.91873248 L24.4212535,14.1931019 Z M1.57321529,19.5386688 L1.57321529,1.57316561 L24.4212535,1.57316561 L24.4212535,5.34548408 L19.5042726,5.34548408 C17.2325019,5.34548408 15.2969096,6.80728025 14.5856357,8.83942038 C13.8400815,9.05470701 13.2927567,9.74196815 13.2927567,10.5559172 C13.2927567,11.3698662 13.8400815,12.057293 14.5856357,12.272414 C15.2969096,14.3045541 17.2325019,15.7663503 19.5042726,15.7663503 L24.4212535,15.7663503 L24.4212535,19.5386688 L1.57321529,19.5386688 Z M24.9240306,-8.28025478e-05 L1.07043822,-8.28025478e-05 C0.480221656,-8.28025478e-05 -3.31210191e-05,0.480006369 -3.31210191e-05,1.07038854 L-3.31210191e-05,20.0416115 C-3.31210191e-05,20.631828 0.480221656,21.1119172 1.07043822,21.1119172 L24.9240306,21.1119172 C25.5144127,21.1119172 25.9945019,20.631828 25.9945019,20.0416115 L25.9945019,14.8096497 L25.9945019,6.30251592 L25.9945019,1.07038854 C25.9945019,0.480006369 25.5144127,-8.28025478e-05 24.9240306,-8.28025478e-05 L24.9240306,-8.28025478e-05 Z" id="Fill-1" fill="#F5812E" mask="url(#mask-2)"></path>
        </g>
    </g>
</svg>