<?xml version="1.0" encoding="UTF-8"?>
<svg width="26px" height="25px" viewBox="0 0 26 25" version="1.1" xmlns="http://www.w3.org/2000/svg" xmlns:xlink="http://www.w3.org/1999/xlink">
    <!-- Generator: Sketch 55.2 (78181) - https://sketchapp.com -->
    <title>kredyty hipoteczne</title>
    <desc>Created with Sketch.</desc>
    <defs>
        <polygon id="path-1" points="0 0 25.8379114 0 25.8379114 24.7679291 0 24.7679291"></polygon>
    </defs>
    <g id="Page-1" stroke="none" stroke-width="1" fill="none" fill-rule="evenodd">
        <g id="kredyty-hipoteczne">
            <mask id="mask-2" fill="white">
                <use xlink:href="#path-1"></use>
            </mask>
            <g id="Clip-2"></g>
            <path d="M21.9761709,12.1636886 L21.9760063,12.1636886 C21.7935127,12.1636886 21.6281329,12.2313215 21.4971456,12.3392709 C21.3288038,12.4783215 21.2192089,12.6858278 21.2192089,12.9204861 L21.2192089,18.8753089 L21.2192089,23.2541696 L18.1591076,23.2541696 L16.6570316,23.2541696 L16.6570316,14.9404228 C16.6570316,14.6276 16.465981,14.3583848 16.1942975,14.2433595 C16.1037911,14.2048532 16.0043987,14.1836253 15.9000696,14.1836253 L9.93784177,14.1836253 C9.83351266,14.1836253 9.7339557,14.2048532 9.64344937,14.2433595 C9.37193038,14.3583848 9.18087975,14.6276 9.18087975,14.9404228 L9.18087975,23.2541696 L7.67863924,23.2541696 L4.61870253,23.2541696 L4.61870253,18.8753089 L4.61870253,12.9204861 C4.61870253,12.6858278 4.50894304,12.4783215 4.34060127,12.3392709 C4.20977848,12.2313215 4.04439873,12.1636886 3.86190506,12.1636886 L3.86174051,12.1636886 L2.58198101,12.1636886 L12.9189557,1.82687848 L23.2559304,12.1636886 L21.9761709,12.1636886 Z M25.8218671,12.7603722 C25.7917532,12.6214861 25.7232975,12.4908278 25.6183101,12.3855114 L14.9746013,1.74196709 L13.4540949,0.221460759 C13.4363228,0.203524051 13.4157532,0.189865823 13.3963354,0.174068354 C13.2617278,0.063321519 13.0961835,-3.29113924e-05 12.9189557,-3.29113924e-05 C12.7417278,-3.29113924e-05 12.5761835,0.063321519 12.4414114,0.174068354 C12.4221582,0.189865823 12.4015886,0.203524051 12.3838165,0.221460759 L10.8633101,1.74196709 L0.219601266,12.3855114 C0.114449367,12.4908278 0.0459936709,12.6214861 0.0160443038,12.7603722 C0.00386708861,12.8164861 -0.000905063291,12.8737519 -4.36477645e-05,12.9315114 C0.00156329114,13.0253089 0.0183481013,13.1197646 0.0557025316,13.2101063 C0.173196203,13.4938025 0.447841772,13.677119 0.75506962,13.677119 L3.10494304,13.677119 L3.10494304,24.0111316 C3.10494304,24.4284481 3.44458861,24.7679291 3.86190506,24.7679291 L7.67863924,24.7679291 L9.93784177,24.7679291 C10.3551582,24.7679291 10.6944747,24.4284481 10.6944747,24.0111316 L10.6944747,15.6973848 L15.1434367,15.6973848 L15.1434367,24.0111316 C15.1434367,24.4284481 15.4827532,24.7679291 15.9000696,24.7679291 L18.1591076,24.7679291 L21.9760063,24.7679291 C22.3933228,24.7679291 22.7329684,24.4284481 22.7329684,24.0111316 L22.7329684,13.677119 L25.0828418,13.677119 C25.3900696,13.677119 25.6647152,13.4938025 25.7822089,13.2101063 C25.8193987,13.1197646 25.8363481,13.0253089 25.8379217,12.9315114 C25.8386519,12.8737519 25.8340443,12.8164861 25.8218671,12.7603722 L25.8218671,12.7603722 Z" id="Fill-1" fill="#F5812E" mask="url(#mask-2)"></path>
        </g>
    </g>
</svg>