<?xml version="1.0" encoding="UTF-8"?>
<svg width="20px" height="20px" viewBox="0 0 20 20" version="1.1" xmlns="http://www.w3.org/2000/svg" xmlns:xlink="http://www.w3.org/1999/xlink">
    <!-- Generator: Sketch 55.2 (78181) - https://sketchapp.com -->
    <title>Group 3</title>
    <desc>Created with Sketch.</desc>
    <defs>
        <polygon id="path-1" points="5.40540541e-05 0 19.8963514 0 19.8963514 19.8963514 5.40540541e-05 19.8963514"></polygon>
    </defs>
    <g id="Page-1" stroke="none" stroke-width="1" fill="none" fill-rule="evenodd">
        <g id="RYNEK-PIERWOTNY" transform="translate(-131.000000, -781.000000)">
            <g id="Group-3" transform="translate(131.000000, 781.000000)">
                <mask id="mask-2" fill="white">
                    <use xlink:href="#path-1"></use>
                </mask>
                <g id="Clip-2"></g>
                <path d="M18.6126216,18.6125676 L1.28383784,18.6125676 L1.28383784,1.28378378 L6.34045946,1.28378378 L6.34045946,15.2258108 C6.34045946,15.5802703 6.62775676,15.8677027 6.98235135,15.8677027 C7.33681081,15.8677027 7.62424324,15.5802703 7.62424324,15.2258108 L7.62424324,8.9472973 L15.2058649,8.9472973 C15.5603243,8.9472973 15.8477568,8.65986486 15.8477568,8.30540541 C15.8477568,7.95094595 15.5603243,7.66351351 15.2058649,7.66351351 L7.62424324,7.66351351 L7.62424324,1.28378378 L18.6126216,1.28378378 L18.6126216,18.6125676 Z M18.9842432,0 L0.912216216,0 C0.409243243,0 5.40540541e-05,0.409189189 5.40540541e-05,0.912162162 L5.40540541e-05,18.9841892 C5.40540541e-05,19.4871622 0.409243243,19.8963514 0.912216216,19.8963514 L18.9842432,19.8963514 C19.4872162,19.8963514 19.8964054,19.4871622 19.8964054,18.9841892 L19.8964054,0.912162162 C19.8964054,0.409189189 19.4872162,0 18.9842432,0 L18.9842432,0 Z" id="Fill-1" fill="#F5812E" mask="url(#mask-2)"></path>
            </g>
        </g>
    </g>
</svg>