<?xml version="1.0" encoding="UTF-8"?>
<svg width="26px" height="26px" viewBox="0 0 26 26" version="1.1" xmlns="http://www.w3.org/2000/svg" xmlns:xlink="http://www.w3.org/1999/xlink">
    <!-- Generator: Sketch 55.2 (78181) - https://sketchapp.com -->
    <title>Group 3</title>
    <desc>Created with Sketch.</desc>
    <defs>
        <polygon id="path-1" points="7.02702703e-05 0 25.8652568 0 25.8652568 25.8652568 7.02702703e-05 25.8652568"></polygon>
    </defs>
    <g id="Page-1" stroke="none" stroke-width="1" fill="none" fill-rule="evenodd">
        <g id="Oferty-Copy" transform="translate(-323.000000, -901.000000)">
            <g id="Group-3" transform="translate(323.000000, 901.000000)">
                <mask id="mask-2" fill="white">
                    <use xlink:href="#path-1"></use>
                </mask>
                <g id="Clip-2"></g>
                <path d="M24.1964081,24.1963378 L1.66898919,24.1963378 L1.66898919,1.66891892 L8.2425973,1.66891892 L8.2425973,19.7935541 C8.2425973,20.2543514 8.61608378,20.6280135 9.07705676,20.6280135 C9.53785405,20.6280135 9.91151622,20.2543514 9.91151622,19.7935541 L9.91151622,11.6314865 L19.7676243,11.6314865 C20.2284216,11.6314865 20.6020838,11.2578243 20.6020838,10.797027 C20.6020838,10.3362297 20.2284216,9.96256757 19.7676243,9.96256757 L9.91151622,9.96256757 L9.91151622,1.66891892 L24.1964081,1.66891892 L24.1964081,24.1963378 Z M24.6795162,0 L1.18588108,0 C0.532016216,0 7.02702703e-05,0.531945946 7.02702703e-05,1.18581081 L7.02702703e-05,24.6794459 C7.02702703e-05,25.3333108 0.532016216,25.8652568 1.18588108,25.8652568 L24.6795162,25.8652568 C25.3333811,25.8652568 25.865327,25.3333108 25.865327,24.6794459 L25.865327,1.18581081 C25.865327,0.531945946 25.3333811,0 24.6795162,0 L24.6795162,0 Z" id="Fill-1" fill="#F5812E" mask="url(#mask-2)"></path>
            </g>
        </g>
    </g>
</svg>