<?xml version="1.0" encoding="UTF-8"?>
<svg width="60px" height="60px" viewBox="0 0 60 60" version="1.1" xmlns="http://www.w3.org/2000/svg" xmlns:xlink="http://www.w3.org/1999/xlink">
    <!-- Generator: Sketch 55.2 (78181) - https://sketchapp.com -->
    <title>Group 34</title>
    <desc>Created with Sketch.</desc>
    <g id="Page-1" stroke="none" stroke-width="1" fill="none" fill-rule="evenodd">
        <g id="Home-Copy" transform="translate(-1112.000000, -5150.000000)">
            <g id="Group-34" transform="translate(1112.000000, 5150.000000)">
                <rect id="Rectangle-Copy-3" stroke="#E1E2F4" x="0.5" y="0.5" width="59" height="59" rx="29.5"></rect>
                <g id="Group-2" transform="translate(21.000000, 20.000000)" fill="#F5812E">
                    <polygon id="Fill-4" points="0.30312869 17.7716291 3.87370888 17.7716291 3.87370888 5.97475636 0.30312869 5.97475636"></polygon>
                    <path d="M4.17677476,2.17636364 C4.17677476,3.37810909 3.2417275,4.3524 2.08838738,4.3524 C0.935047259,4.3524 3.3173464e-13,3.37810909 3.3173464e-13,2.17636364 C3.3173464e-13,0.974618182 0.935047259,-5.51558799e-13 2.08838738,-5.51558799e-13 C3.2417275,-5.51558799e-13 4.17677476,0.974618182 4.17677476,2.17636364" id="Fill-6"></path>
                    <path d="M9.79236644,7.32626182 L9.79236644,5.97462545 L6.22147215,5.97462545 L6.22147215,17.7718255 L9.79236644,17.7718255 L9.79236644,10.8061527 C9.79236644,10.8061527 10.1017455,8.73353455 11.7811871,8.73353455 C13.4606288,8.73353455 13.7543033,10.6362982 13.7543033,11.1717164 L13.7543033,17.8225527 L17.3245694,17.8225527 L17.3245694,10.8061527 C17.3245694,8.56368 16.5095047,5.54000727 13.5419782,5.54000727 C11.1222254,5.54000727 10.0907524,6.84484364 9.79236644,7.32626182 Z" id="Fill-7"></path>
                </g>
            </g>
        </g>
    </g>
</svg>