<?xml version="1.0" encoding="UTF-8"?>
<svg width="91px" height="96px" viewBox="0 0 91 96" version="1.1" xmlns="http://www.w3.org/2000/svg" xmlns:xlink="http://www.w3.org/1999/xlink">
    <!-- Generator: Sketch 55.2 (78181) - https://sketchapp.com -->
    <title>Group 38</title>
    <desc>Created with Sketch.</desc>
    <g id="Page-1" stroke="none" stroke-width="1" fill="none" fill-rule="evenodd">
        <g id="Home-Copy" transform="translate(-374.000000, -5138.000000)">
            <g id="Group-38" transform="translate(374.000000, 5138.000000)">
                <g id="Group-17-Copy-2" fill="#FFFFFF" opacity="0.932407924">
                    <g id="Group-16">
                        <g id="Group-6">
                            <path d="M42.8709427,0 L43.4,0 L43.9290573,0 C67.6060252,-4.34938844e-15 86.8,19.1939748 86.8,42.8709427 L86.8,71.4427513 C86.7999955,84.7282859 76.0299418,95.4983396 62.7444072,95.4983396 C55.1138229,95.4983396 47.9357755,91.8780534 43.4,85.7418855 C43.4,85.7418855 43.4,85.7418855 43.4,85.7418855 C40.5090437,81.8308909 36.4236691,79.5004596 31.1438761,78.7505914 C13.2772506,76.2130728 2.20998809e-15,60.916865 0,42.8709427 C-2.89959229e-15,19.1939748 19.1939748,4.34938844e-15 42.8709427,0 Z" id="Rectangle"></path>
                        </g>
                    </g>
                </g>
                <path d="M2,14.000225 L2,56.806025 L21.7246452,56.806025 L18.7548387,64.590125 L15.571871,64.590125 L15.571871,67.859375 L44.428129,67.859375 L44.428129,64.590125 L41.2736129,64.590125 L38.3033548,56.806025 L58,56.806025 L58,14.000225 L2,14.000225 Z M5.28141935,46.061375 L54.7190323,46.061375 L54.7190323,17.269475 L5.28141935,17.269475 L5.28141935,46.061375 Z M5.28141935,53.536325 L54.7190323,53.536325 L54.7190323,49.330625 L5.28141935,49.330625 L5.28141935,53.536325 Z M25.2350323,56.806025 L34.7929677,56.806025 L37.7632258,64.590125 L22.2647742,64.590125 L25.2350323,56.806025 Z" id="Fill-1" fill="#232740"></path>
                <path d="M30.0776323,34.28294 C30.2108581,33.95399 30.2781484,33.54674 30.2781484,33.06074 L30.2781484,28.57199 C29.7904065,28.57199 29.4173742,28.66964 29.1576968,28.86539 C28.898471,29.06114 28.7096968,29.39459 28.5913742,29.86439 C28.4735032,30.33464 28.4147935,31.01594 28.4147935,31.90919 C28.4147935,32.70839 28.4893097,33.38609 28.6387935,33.94229 C28.7882774,34.49849 29.0357613,34.77659 29.3816968,34.77659 C29.7118258,34.77659 29.9439548,34.61189 30.0776323,34.28294 M24.5227935,41.59274 C23.0442129,40.85609 21.872729,39.68879 21.0078903,38.09039 C20.1430516,36.49244 19.7108581,34.45574 19.7108581,31.97984 C19.7108581,29.58224 20.1037613,27.52574 20.8900194,25.80989 C21.6762774,24.09404 22.8161484,22.78184 24.3105355,21.87329 C25.804471,20.96429 27.5892452,20.51024 29.6648581,20.51024 C32.6053097,20.51024 34.8462129,21.40709 36.3875677,23.20124 C37.928471,24.99539 38.6989226,27.51404 38.6989226,30.75764 C38.6989226,33.04544 38.3453097,34.77659 37.6376323,35.95154 C36.9299548,37.12694 35.8131161,37.71464 34.2880194,37.71464 C33.2344065,37.71464 32.4246645,37.50269 31.8583419,37.08014 C31.292471,36.65669 30.8679548,36.04559 30.5847935,35.24684 C30.4434387,35.98304 30.1796968,36.56264 29.794471,36.98609 C29.4092452,37.40864 28.9178903,37.62059 28.3204065,37.62059 C27.2356323,37.62059 26.3861484,37.07609 25.7728581,35.98709 C25.1595677,34.89809 24.8529226,33.57014 24.8529226,32.00324 C24.8529226,30.18569 25.1121484,28.72814 25.6315032,27.63149 C26.1504065,26.53484 26.9994387,25.98629 28.1786,25.98629 C28.6979548,25.98629 29.1378258,26.12354 29.4995677,26.39759 C29.8613097,26.67209 30.1995677,27.06764 30.5138903,27.58424 L30.9618903,26.07989 L33.5803419,26.07989 L33.5803419,33.43694 C33.5803419,34.53404 33.9181484,35.08214 34.5946645,35.08214 C35.0819548,35.08214 35.4161484,34.74149 35.5972452,34.05974 C35.7778903,33.37799 35.8686645,32.30114 35.8686645,30.82784 C35.8686645,28.35239 35.408471,26.47229 34.4885355,25.18709 C33.5686,23.90279 32.0471161,23.25974 29.9245355,23.25974 C27.6755032,23.25974 25.9616323,24.00809 24.7820194,25.50434 C23.6028581,27.00059 23.0130516,29.16734 23.0130516,32.00324 C23.0130516,34.60424 23.6105355,36.58604 24.8059548,37.94954 C26.000471,39.31304 27.6438903,39.99434 29.7357613,39.99434 C30.4113742,39.99434 31.4338258,39.91649 32.8022129,39.75944 L33.1558258,42.34469 C31.7716323,42.57959 30.5766645,42.69704 29.570471,42.69704 C27.6836323,42.69704 26.000471,42.32894 24.5227935,41.59274" id="Fill-2" fill="#F5812E"></path>
                <g id="Group-21-Copy-5" transform="translate(68.000000, 0.000000)">
                    <g id="Triangle-Copy-2"></g>
                    <g id="Triangle-Copy-6" transform="translate(0.000000, 13.000000)"></g>
                    <polygon id="Triangle" fill="#F888AE" points="4 0 8 8 0 8"></polygon>
                    <polygon id="Triangle" fill="#F888AE" points="4 13 8 21 0 21"></polygon>
                    <polygon id="Triangle" fill="#F888AE" points="4 26 8 34 0 34"></polygon>
                    <g id="Triangle-Copy-10" transform="translate(0.000000, 39.000000)" fill="#F888AE">
                        <polygon id="Triangle" points="4 0 8 8 0 8"></polygon>
                    </g>
                    <g id="Triangle-Copy-13" transform="translate(0.000000, 52.000000)" fill="#F888AE">
                        <polygon id="Triangle" points="4 0 8 8 0 8"></polygon>
                    </g>
                    <g id="Triangle-Copy-3" transform="translate(15.000000, 13.000000)" fill="#F888AE">
                        <polygon id="Triangle" points="4 0 8 8 0 8"></polygon>
                    </g>
                    <g id="Triangle-Copy-16" transform="translate(15.000000, 26.000000)" fill="#F888AE">
                        <polygon id="Triangle" points="4 0 8 8 0 8"></polygon>
                    </g>
                    <g id="Triangle-Copy-17" transform="translate(15.000000, 39.000000)" fill="#F888AE">
                        <polygon id="Triangle" points="4 0 8 8 0 8"></polygon>
                    </g>
                    <g id="Triangle-Copy-18" transform="translate(15.000000, 52.000000)" fill="#F888AE">
                        <polygon id="Triangle" points="4 0 8 8 0 8"></polygon>
                    </g>
                </g>
            </g>
        </g>
    </g>
</svg>