<svg xmlns="http://www.w3.org/2000/svg" width="63" height="63" viewBox="0 0 63 63"><defs><clipPath id="dfb6a"><path fill="#fff" d="M0 31C0 13.88 13.88 0 31 0h1c17.12 0 31 13.88 31 31v1c0 17.12-13.88 31-31 31h-1C13.88 63 0 49.12 0 32z"/></clipPath></defs><g><g><g><path fill="none" stroke="#e1e1e1" stroke-miterlimit="20" stroke-width="2" d="M0 31C0 13.88 13.88 0 31 0h1c17.12 0 31 13.88 31 31v1c0 17.12-13.88 31-31 31h-1C13.88 63 0 49.12 0 32z" clip-path="url(&quot;#dfb6a&quot;)"/></g><g><g transform="rotate(-315 36 31.5)"><path fill="none" stroke="#f6893c" stroke-miterlimit="20" stroke-width="2" d="M27.43 26.709v0l9.991-.209v0l-.208 9.991v0"/></g><g><path fill="none" stroke="#f6893c" stroke-linecap="square" stroke-miterlimit="20" stroke-width="2" d="M39.493 31.586H23.63"/></g></g></g></g></svg>