<svg xmlns="http://www.w3.org/2000/svg" width="41" height="41" viewBox="0 0 41 41"><defs><clipPath id="qhfaa"><path fill="#fff" d="M0 20C0 8.954 8.954 0 20 0h.32c11.046 0 20 8.954 20 20v.32c0 11.046-8.954 20-20 20H20c-11.046 0-20-8.954-20-20z"/></clipPath></defs><g><g transform="matrix(-1 0 0 1 41 0)"><g><path fill="none" stroke="#e1e1e1" stroke-miterlimit="20" stroke-width="1.28" d="M0 20C0 8.954 8.954 0 20 0h.32c11.046 0 20 8.954 20 20v.32c0 11.046-8.954 20-20 20H20c-11.046 0-20-8.954-20-20z" clip-path="url(&quot;#qhfaa&quot;)"/></g><g><g transform="rotate(-315 17.5 20)"><path fill="none" stroke="#f6893c" stroke-miterlimit="20" stroke-width="1.28" d="M17.56 17.094v0l6.394-.134v0l-.133 6.394v0"/></g><g><path fill="none" stroke="#f6893c" stroke-linecap="square" stroke-miterlimit="20" stroke-width="1.28" d="M25.275 20.215H15.124"/></g></g></g></g></svg>