<?xml version="1.0" encoding="UTF-8"?>
<svg width="20px" height="20px" viewBox="0 0 20 20" version="1.1" xmlns="http://www.w3.org/2000/svg" xmlns:xlink="http://www.w3.org/1999/xlink">
    <!-- Generator: Sketch 55.2 (78181) - https://sketchapp.com -->
    <title>Group 3</title>
    <desc>Created with Sketch.</desc>
    <defs>
        <polygon id="path-1" points="0 0 19.8962162 0 19.8962162 19.8962973 0 19.8962973"></polygon>
    </defs>
    <g id="Page-1" stroke="none" stroke-width="1" fill="none" fill-rule="evenodd">
        <g id="RYNEK-PIERWOTNY" transform="translate(-131.000000, -877.000000)">
            <g id="Group-3" transform="translate(131.000000, 877.000000)">
                <g>
                    <mask id="mask-2" fill="white">
                        <use xlink:href="#path-1"></use>
                    </mask>
                    <g id="Clip-2"></g>
                    <path d="M13.8625676,-5.40540541e-05 C13.5081081,-5.40540541e-05 13.2206757,0.287378378 13.2206757,0.641837838 C13.2206757,0.996297297 13.5081081,1.28372973 13.8625676,1.28372973 L17.7048649,1.28372973 L9.94810811,9.04035135 L2.19148649,1.28372973 L6.03364865,1.28372973 C6.38810811,1.28372973 6.67554054,0.996297297 6.67554054,0.641837838 C6.67554054,0.287378378 6.38810811,-5.40540541e-05 6.03364865,-5.40540541e-05 L0,-5.40540541e-05 L0,6.03359459 C0,6.38805405 0.287432432,6.67548649 0.641891892,6.67548649 C0.996351351,6.67548649 1.28378378,6.38805405 1.28378378,6.03359459 L1.28378378,2.19143243 L9.04040541,9.94805405 L1.28378378,17.7049459 L1.28378378,13.8626486 C1.28378378,13.5081892 0.996351351,13.2207568 0.641891892,13.2207568 C0.287432432,13.2207568 0,13.5081892 0,13.8626486 L0,19.8962973 L6.03364865,19.8962973 C6.38810811,19.8962973 6.67554054,19.6088649 6.67554054,19.2544054 C6.67554054,18.8999459 6.38810811,18.6125135 6.03364865,18.6125135 L2.19148649,18.6125135 L9.94810811,10.8557568 L17.7048649,18.6125135 L13.8625676,18.6125135 C13.5081081,18.6125135 13.2206757,18.8999459 13.2206757,19.2544054 C13.2206757,19.6088649 13.5081081,19.8962973 13.8625676,19.8962973 L19.8962162,19.8962973 L19.8962162,13.8626486 C19.8962162,13.5081892 19.6087838,13.2207568 19.2543243,13.2207568 C18.8998649,13.2207568 18.6124324,13.5081892 18.6124324,13.8626486 L18.6124324,17.7049459 L10.8558108,9.94805405 L18.6124324,2.19143243 L18.6124324,6.03359459 C18.6124324,6.38805405 18.8998649,6.67548649 19.2543243,6.67548649 C19.6087838,6.67548649 19.8962162,6.38805405 19.8962162,6.03359459 L19.8962162,-5.40540541e-05 L13.8625676,-5.40540541e-05 Z" id="Fill-1" fill="#F5812E" mask="url(#mask-2)"></path>
                </g>
            </g>
        </g>
    </g>
</svg>