<?xml version="1.0" encoding="UTF-8"?>
<svg width="26px" height="26px" viewBox="0 0 26 26" version="1.1" xmlns="http://www.w3.org/2000/svg" xmlns:xlink="http://www.w3.org/1999/xlink">
    <!-- Generator: Sketch 55.2 (78181) - https://sketchapp.com -->
    <title>Group 3</title>
    <desc>Created with Sketch.</desc>
    <defs>
        <polygon id="path-1" points="0 0 25.8650811 0 25.8650811 25.8651865 0 25.8651865"></polygon>
    </defs>
    <g id="Page-1" stroke="none" stroke-width="1" fill="none" fill-rule="evenodd">
        <g id="Oferty-Copy" transform="translate(-102.000000, -901.000000)">
            <g id="Group-3" transform="translate(102.000000, 901.000000)">
                <g>
                    <mask id="mask-2" fill="white">
                        <use xlink:href="#path-1"></use>
                    </mask>
                    <g id="Clip-2"></g>
                    <path d="M18.0213378,-7.02702703e-05 C17.5605405,-7.02702703e-05 17.1868784,0.373591892 17.1868784,0.834389189 C17.1868784,1.29518649 17.5605405,1.66884865 18.0213378,1.66884865 L23.0163243,1.66884865 L12.9325405,11.7524568 L2.84893243,1.66884865 L7.84374324,1.66884865 C8.30454054,1.66884865 8.6782027,1.29518649 8.6782027,0.834389189 C8.6782027,0.373591892 8.30454054,-7.02702703e-05 7.84374324,-7.02702703e-05 L0,-7.02702703e-05 L0,7.84367297 C0,8.30447027 0.373662162,8.67813243 0.834459459,8.67813243 C1.29525676,8.67813243 1.66891892,8.30447027 1.66891892,7.84367297 L1.66891892,2.84886216 L11.752527,12.9324703 L1.66891892,23.0164297 L1.66891892,18.0214432 C1.66891892,17.5606459 1.29525676,17.1869838 0.834459459,17.1869838 C0.373662162,17.1869838 0,17.5606459 0,18.0214432 L0,25.8651865 L7.84374324,25.8651865 C8.30454054,25.8651865 8.6782027,25.4915243 8.6782027,25.030727 C8.6782027,24.5699297 8.30454054,24.1962676 7.84374324,24.1962676 L2.84893243,24.1962676 L12.9325405,14.1124838 L23.0163243,24.1962676 L18.0213378,24.1962676 C17.5605405,24.1962676 17.1868784,24.5699297 17.1868784,25.030727 C17.1868784,25.4915243 17.5605405,25.8651865 18.0213378,25.8651865 L25.8650811,25.8651865 L25.8650811,18.0214432 C25.8650811,17.5606459 25.4914189,17.1869838 25.0306216,17.1869838 C24.5698243,17.1869838 24.1961622,17.5606459 24.1961622,18.0214432 L24.1961622,23.0164297 L14.1125541,12.9324703 L24.1961622,2.84886216 L24.1961622,7.84367297 C24.1961622,8.30447027 24.5698243,8.67813243 25.0306216,8.67813243 C25.4914189,8.67813243 25.8650811,8.30447027 25.8650811,7.84367297 L25.8650811,-7.02702703e-05 L18.0213378,-7.02702703e-05 Z" id="Fill-1" fill="#F5812E" mask="url(#mask-2)"></path>
                </g>
            </g>
        </g>
    </g>
</svg>