<?xml version="1.0" encoding="utf-8"?>
<!-- Generator: Adobe Illustrator 25.2.1, SVG Export Plug-In . SVG Version: 6.00 Build 0)  -->
<svg version="1.1" id="Warstwa_1" xmlns="http://www.w3.org/2000/svg" xmlns:xlink="http://www.w3.org/1999/xlink" x="0px" y="0px"
	 viewBox="0 0 63 63" style="enable-background:new 0 0 63 63;" xml:space="preserve">
<style type="text/css">
	.st0{fill-rule:evenodd;clip-rule:evenodd;fill:#232740;}
	.st1{enable-background:new    ;}
	.st2{fill:#FFFFFF;}
</style>
<desc>Created with Sketch.</desc>
<g id="Page-1">
	<g id="Home-Copy" transform="translate(-927.000000, -3801.000000)">
		<g id="Group-26-Copy-3" transform="translate(927.000000, 3784.000000)">
			<g id="Group-25">
				<g id="Group-24-Copy-2" transform="translate(0.000000, 17.000000)">
					<path id="Rectangle" class="st0" d="M31.5,0L31.5,0C48.9,0,63,14.1,63,31.5l0,0C63,48.9,48.9,63,31.5,63l0,0
						C14.1,63,0,48.9,0,31.5l0,0C0,14.1,14.1,0,31.5,0z"/>
				</g>
				<g class="st1">
					<path class="st2" d="M30.8,48.5c0,1.8-0.5,3.3-1.4,4.4c-0.9,1.1-2.3,1.7-4.1,1.7V52c1.4,0,2.1-0.9,2.1-2.7v-0.6h-2.5v-4.9h5.2
						C30.6,45.3,30.8,46.8,30.8,48.5z M38.5,48.5c0,1.8-0.5,3.3-1.4,4.4s-2.4,1.7-4.2,1.7V52c1.4,0,2.1-0.9,2.1-2.7v-0.6h-2.6v-4.9
						h5.2C38.2,45.4,38.5,47,38.5,48.5z"/>
				</g>
			</g>
		</g>
	</g>
</g>
</svg>
