<?xml version="1.0" encoding="UTF-8"?>
<svg width="26px" height="26px" viewBox="0 0 26 26" version="1.1" xmlns="http://www.w3.org/2000/svg" xmlns:xlink="http://www.w3.org/1999/xlink">
    <!-- Generator: Sketch 55.2 (78181) - https://sketchapp.com -->
    <title>Group 14</title>
    <desc>Created with Sketch.</desc>
    <g id="Page-1" stroke="none" stroke-width="1" fill="none" fill-rule="evenodd">
        <g id="Oferty-Copy" transform="translate(-544.000000, -901.000000)" fill="#F5812E">
            <g id="Group-14" transform="translate(544.000000, 901.000000)">
                <path d="M1.66891892,24.1961622 L24.1961622,24.1961622 L24.1961622,5.17364865 L1.66891892,5.17364865 L1.66891892,24.1961622 Z M24.6792703,25.8650811 L1.18581081,25.8650811 C0.531945946,25.8650811 0,25.3331351 0,24.6792703 L0,4.69054054 C0,4.03667568 0.531945946,3.50472973 1.18581081,3.50472973 L24.6792703,3.50472973 C25.3331351,3.50472973 25.8650811,4.03667568 25.8650811,4.69054054 L25.8650811,24.6792703 C25.8650811,25.3331351 25.3331351,25.8650811 24.6792703,25.8650811 L24.6792703,25.8650811 Z" id="Fill-1"></path>
                <path d="M9.07696892,8.6782027 C8.61617162,8.6782027 8.24250946,8.30454054 8.24250946,7.84374324 L8.24250946,0.834459459 C8.24250946,0.373662162 8.61617162,0 9.07696892,0 C9.53776622,0 9.91142838,0.373662162 9.91142838,0.834459459 L9.91142838,7.84374324 C9.91142838,8.30454054 9.53776622,8.6782027 9.07696892,8.6782027" id="Fill-3"></path>
                <path d="M17.0220068,8.6782027 C16.5612095,8.6782027 16.1875473,8.30454054 16.1875473,7.84374324 L16.1875473,0.834459459 C16.1875473,0.373662162 16.5612095,0 17.0220068,0 C17.4828041,0 17.8564662,0.373662162 17.8564662,0.834459459 L17.8564662,7.84374324 C17.8564662,8.30454054 17.4828041,8.6782027 17.0220068,8.6782027" id="Fill-4"></path>
                <path d="M20.9361135,12.6243878 L18.5214514,12.6243878 C18.0606541,12.6243878 17.6869919,12.2507257 17.6869919,11.7899284 C17.6869919,11.3291311 18.0606541,10.9554689 18.5214514,10.9554689 L20.9361135,10.9554689 C21.3969108,10.9554689 21.770573,11.3291311 21.770573,11.7899284 C21.770573,12.2507257 21.3969108,12.6243878 20.9361135,12.6243878" id="Fill-5"></path>
                <path d="M14.4905027,12.6243878 L12.0758405,12.6243878 C11.6150432,12.6243878 11.2413811,12.2507257 11.2413811,11.7899284 C11.2413811,11.3291311 11.6150432,10.9554689 12.0758405,10.9554689 L14.4905027,10.9554689 C14.9513,10.9554689 15.3249622,11.3291311 15.3249622,11.7899284 C15.3249622,12.2507257 14.9513,12.6243878 14.4905027,12.6243878" id="Fill-6"></path>
                <path d="M8.04487432,12.6243878 L5.63021216,12.6243878 C5.16941486,12.6243878 4.7957527,12.2507257 4.7957527,11.7899284 C4.7957527,11.3291311 5.16941486,10.9554689 5.63021216,10.9554689 L8.04487432,10.9554689 C8.50567162,10.9554689 8.87933378,11.3291311 8.87933378,11.7899284 C8.87933378,12.2507257 8.50567162,12.6243878 8.04487432,12.6243878" id="Fill-7"></path>
                <path d="M20.9361135,17.0643095 L18.5214514,17.0643095 C18.0606541,17.0643095 17.6869919,16.6906473 17.6869919,16.22985 C17.6869919,15.7690527 18.0606541,15.3953905 18.5214514,15.3953905 L20.9361135,15.3953905 C21.3969108,15.3953905 21.770573,15.7690527 21.770573,16.22985 C21.770573,16.6906473 21.3969108,17.0643095 20.9361135,17.0643095" id="Fill-8"></path>
                <path d="M14.4905027,17.0643095 L12.0758405,17.0643095 C11.6150432,17.0643095 11.2413811,16.6906473 11.2413811,16.22985 C11.2413811,15.7690527 11.6150432,15.3953905 12.0758405,15.3953905 L14.4905027,15.3953905 C14.9513,15.3953905 15.3249622,15.7690527 15.3249622,16.22985 C15.3249622,16.6906473 14.9513,17.0643095 14.4905027,17.0643095" id="Fill-9"></path>
                <path d="M8.04487432,17.0643095 L5.63021216,17.0643095 C5.16941486,17.0643095 4.7957527,16.6906473 4.7957527,16.22985 C4.7957527,15.7690527 5.16941486,15.3953905 5.63021216,15.3953905 L8.04487432,15.3953905 C8.50567162,15.3953905 8.87933378,15.7690527 8.87933378,16.22985 C8.87933378,16.6906473 8.50567162,17.0643095 8.04487432,17.0643095" id="Fill-10"></path>
                <path d="M20.9361135,21.5042486 L18.5214514,21.5042486 C18.0606541,21.5042486 17.6869919,21.1305865 17.6869919,20.6697892 C17.6869919,20.2089919 18.0606541,19.8353297 18.5214514,19.8353297 L20.9361135,19.8353297 C21.3969108,19.8353297 21.770573,20.2089919 21.770573,20.6697892 C21.770573,21.1305865 21.3969108,21.5042486 20.9361135,21.5042486" id="Fill-11"></path>
                <path d="M14.4905027,21.5042486 L12.0758405,21.5042486 C11.6150432,21.5042486 11.2413811,21.1305865 11.2413811,20.6697892 C11.2413811,20.2089919 11.6150432,19.8353297 12.0758405,19.8353297 L14.4905027,19.8353297 C14.9513,19.8353297 15.3249622,20.2089919 15.3249622,20.6697892 C15.3249622,21.1305865 14.9513,21.5042486 14.4905027,21.5042486" id="Fill-12"></path>
                <path d="M8.04487432,21.5042486 L5.63021216,21.5042486 C5.16941486,21.5042486 4.7957527,21.1305865 4.7957527,20.6697892 C4.7957527,20.2089919 5.16941486,19.8353297 5.63021216,19.8353297 L8.04487432,19.8353297 C8.50567162,19.8353297 8.87933378,20.2089919 8.87933378,20.6697892 C8.87933378,21.1305865 8.50567162,21.5042486 8.04487432,21.5042486" id="Fill-13"></path>
            </g>
        </g>
    </g>
</svg>