<svg xmlns="http://www.w3.org/2000/svg" width="42" height="58" viewBox="0 0 42 58"><g><g><g/><g/><g/><g/><g/><g/><g/><g><g><path fill="#cbcbea" d="M3.17 20.66l3.17 6.356H0z"/></g><g><path fill="#cbcbea" d="M15.06 10.33l3.17 6.356h-6.34z"/></g><g><path fill="#cbcbea" d="M15.06 20.66l3.17 6.356h-6.34z"/></g><g><path fill="#cbcbea" d="M26.94 10.33l3.17 6.356h-6.34z"/></g><g><path fill="#cbcbea" d="M21.4 0l3.17 6.356h-6.34z"/></g><g><path fill="#cbcbea" d="M26.94 20.66l3.17 6.356h-6.34z"/></g><g><path fill="#cbcbea" d="M3.17 30.99l3.17 6.356H0z"/></g><g><path fill="#cbcbea" d="M15.06 30.99l3.17 6.356h-6.34z"/></g><g><path fill="#cbcbea" d="M26.94 30.99l3.17 6.356h-6.34z"/></g></g><g><g><path fill="#cbcbea" d="M3.17 41.32l3.17 6.356H0z"/></g></g><g><g><path fill="#cbcbea" d="M15.06 41.32l3.17 6.356h-6.34z"/></g></g><g><g><path fill="#cbcbea" d="M26.94 41.32l3.17 6.356h-6.34z"/></g></g><g><g><path fill="#cbcbea" d="M3.17 51.64l3.17 6.356H0z"/></g></g><g><g><path fill="#cbcbea" d="M15.06 51.64l3.17 6.356h-6.34z"/></g></g><g><g><path fill="#cbcbea" d="M26.94 51.64l3.17 6.356h-6.34z"/></g></g><g><g><path fill="#cbcbea" d="M38.83 20.66L42 27.016h-6.34z"/></g></g><g><g><path fill="#cbcbea" d="M38.83 30.99L42 37.346h-6.34z"/></g></g><g><g><path fill="#cbcbea" d="M38.83 41.32L42 47.676h-6.34z"/></g></g><g><g><path fill="#cbcbea" d="M38.83 51.64L42 57.996h-6.34z"/></g></g></g></g></svg>