<?xml version="1.0" encoding="UTF-8"?>
<svg width="53px" height="73px" viewBox="0 0 53 73" version="1.1" xmlns="http://www.w3.org/2000/svg" xmlns:xlink="http://www.w3.org/1999/xlink">
    <!-- Generator: Sketch 55.2 (78181) - https://sketchapp.com -->
    <title>Group 11 Copy 5</title>
    <desc>Created with Sketch.</desc>
    <g id="Page-1" stroke="none" stroke-width="1" fill="none" fill-rule="evenodd">
        <g id="Home" transform="translate(-171.000000, -798.000000)">
            <g id="Group-11-Copy-5" transform="translate(171.000000, 798.000000)">
                <g id="Triangle-Copy-4" transform="translate(0.000000, 26.000000)"></g>
                <g id="Triangle-Copy" transform="translate(15.000000, 13.000000)"></g>
                <g id="Triangle-Copy-5" transform="translate(15.000000, 26.000000)"></g>
                <g id="Triangle-Copy-2" transform="translate(30.000000, 13.000000)"></g>
                <g id="Triangle-Copy-6" transform="translate(30.000000, 26.000000)"></g>
                <g id="Triangle-Copy-9" transform="translate(0.000000, 39.000000)"></g>
                <g id="Triangle-Copy-8" transform="translate(15.000000, 39.000000)"></g>
                <g id="Triangle-Copy-7" fill="#CBCBEA">
                    <polygon id="Triangle" points="4 26 8 34 0 34"></polygon>
                    <polygon id="Triangle" points="19 13 23 21 15 21"></polygon>
                    <polygon id="Triangle" points="19 26 23 34 15 34"></polygon>
                    <polygon id="Triangle" points="34 13 38 21 30 21"></polygon>
                    <polygon id="Triangle-Copy-19" points="27 0 31 8 23 8"></polygon>
                    <polygon id="Triangle" points="34 26 38 34 30 34"></polygon>
                    <polygon id="Triangle" points="4 39 8 47 0 47"></polygon>
                    <polygon id="Triangle" points="19 39 23 47 15 47"></polygon>
                    <polygon id="Triangle" points="34 39 38 47 30 47"></polygon>
                </g>
                <g id="Triangle-Copy-12" transform="translate(0.000000, 52.000000)" fill="#CBCBEA">
                    <polygon id="Triangle" points="4 0 8 8 0 8"></polygon>
                </g>
                <g id="Triangle-Copy-11" transform="translate(15.000000, 52.000000)" fill="#CBCBEA">
                    <polygon id="Triangle" points="4 0 8 8 0 8"></polygon>
                </g>
                <g id="Triangle-Copy-10" transform="translate(30.000000, 52.000000)" fill="#CBCBEA">
                    <polygon id="Triangle" points="4 0 8 8 0 8"></polygon>
                </g>
                <g id="Triangle-Copy-15" transform="translate(0.000000, 65.000000)" fill="#CBCBEA">
                    <polygon id="Triangle" points="4 0 8 8 0 8"></polygon>
                </g>
                <g id="Triangle-Copy-14" transform="translate(15.000000, 65.000000)" fill="#CBCBEA">
                    <polygon id="Triangle" points="4 0 8 8 0 8"></polygon>
                </g>
                <g id="Triangle-Copy-13" transform="translate(30.000000, 65.000000)" fill="#CBCBEA">
                    <polygon id="Triangle" points="4 0 8 8 0 8"></polygon>
                </g>
                <g id="Triangle-Copy-3" transform="translate(45.000000, 26.000000)" fill="#CBCBEA">
                    <polygon id="Triangle" points="4 0 8 8 0 8"></polygon>
                </g>
                <g id="Triangle-Copy-16" transform="translate(45.000000, 39.000000)" fill="#CBCBEA">
                    <polygon id="Triangle" points="4 0 8 8 0 8"></polygon>
                </g>
                <g id="Triangle-Copy-17" transform="translate(45.000000, 52.000000)" fill="#CBCBEA">
                    <polygon id="Triangle" points="4 0 8 8 0 8"></polygon>
                </g>
                <g id="Triangle-Copy-18" transform="translate(45.000000, 65.000000)" fill="#CBCBEA">
                    <polygon id="Triangle" points="4 0 8 8 0 8"></polygon>
                </g>
            </g>
        </g>
    </g>
</svg>